<svg width="146" height="67" fill="none" xmlns="http://www.w3.org/2000/svg"><path d="M13.934 21.437c1.261.063 2.586.252 3.72-.19l.064-.063.063-.063c.945-.945 2.143-1.45 3.341-1.954.568-.19 1.135-.505 1.766-.568l3.215-.126c.883.126 1.955.379 2.774.19 0 0-.063 0-.189.126l.063-.064.063-.063c.63-.693 1.64-.44 2.396-.252.315.063.568.126.82.063 1.26-.315 2.774-.252 4.035-.126l-.504.126 1.702-.882.19-.063h.062c.694-.063 1.261-.127 1.955.126.441.189 1.008 0 1.45-.126.504.756 1.198 1.702 1.828 2.143l-.063.063c.252-.252.568-.315.82-.315.504 0 .946.126 1.387.252h-.315c1.513-.756 3.152-.441 4.602.19l1.387.567c.757.315 1.45.693 2.207.756 1.135.063 2.27.379 3.342.568.315.063 1.009.252 1.387.252 2.837.63 7.125 2.144 9.899 2.963 1.828.568 3.657 1.135 5.548 1.64 1.892.504 3.91.82 5.675 1.576 3.657 1.198 7.44 2.333 11.16 3.53l-.063.253c-4.414-.441-8.764-1.072-13.052-2.27-1.387-.378-2.837-.441-4.224-.756-3.91-.82-7.63-2.144-11.286-3.594-.883-.378-3.153-1.261-3.972-1.576l-.126-.064c-.126 0-.442-.126-.568-.189-1.135-.378-2.333-.82-3.404-1.072l-.127-.063H52.9c-.441-.063-.945-.252-1.324-.44-1.954-.947-4.224-2.838-6.494-1.766l-.315.252c-.378-.126-.82-.315-1.198-.252-.315 0-.315.252-.63.315-.253.063-.505-.063-.757-.19-.82-.504-1.324-1.134-1.892-1.828l.568.19c-.568.189-1.261.378-1.829.126-.315-.064-.882.063-1.26.126l.252-.126c-.127.063-1.703 1.197-1.766 1.26-1.072 0-2.207 0-3.215.253l-.568.189c-.882.19-1.576 0-2.333-.19-.126-.062-.252 0-.063-.062.063 0 .126-.063.126-.063.063 0 .063-.063.063-.063-.504.567-1.134.63-1.639.63-1.009 0-1.828-.126-2.774-.315h.19l-3.216-.126h-.063c-.694.126-1.892.504-2.712.756-.567.19-1.135.442-1.576.757-.378.441-1.009.504-1.45.441-1.135-.063-2.144-.315-3.216-.693l.127-.126z" fill="#A48F65"/><path d="M49.999 20.176c2.08-.441 4.161-.882 6.305-1.26a345.13 345.13 0 0111.412-.38l-.378.064c1.639-.757 3.152-1.576 4.98-1.955.568-.063 1.198 0 1.577.505 0-.063-.126-.126-.126-.126-.064-.063-.064-.063-.127-.063.253 0 .694 0 1.072-.063.442-.063 1.45-.253 1.892-.253.378-.063 1.072-.063 1.513.253.126.063.252.189.19.126a.479.479 0 00-.253-.126c-.126 0 0 0 .19-.063.377-.064.945-.253 1.638-.19.19 0 .316.064.442.064 2.27-.19 4.476-.82 6.683-1.261h.126l4.035.126-.378.063 2.018-.946.189-.063h.126l1.64.063h-.19l2.648-.694-.315.82-1.261-1.892.315.19a827.317 827.317 0 01-7.881-1.072c-.126 0-.315-.063-.441-.063h-.694c-1.513.126-2.963.504-4.477.252-.189-.063-.315-.063-.504-.19-.252-.188-.504-.188-.82-.315-3.846-.567-7.818-.504-11.664-.567l-.126-.063-2.774-.946c-.063 0-.126-.063-.19-.126-1.323-.883-2.584-1.828-4.035-2.333-1.134-.126-2.27.379-3.53.253-.316 0-.63-.127-.946-.253-.126-.063-.252-.126-.315-.252-1.135-.378-2.648-.567-3.91-.693-6.557-.19-13.177-.316-19.797-.63l-2.144-.127h-1.009c-4.413.378-9.205.694-13.681.82-2.523 0-5.99-.19-8.512-.253-2.837-.126-5.675-.252-8.512-.44v-.253c5.17-.315 10.719-.568 15.889-.694 4.413-.315 9.268-.882 13.681-1.26l.568-.064c.252 0 .63-.063.883-.063h.82l2.143.063c6.494.19 13.051.505 19.609.82 1.324.126 2.522.315 3.846.693.504.127.882.253 1.324.568l.189.19-.063-.064c1.26.19 2.774-.441 4.161 0 .252.126.505.19.757.315 1.324.757 2.459 1.64 3.593 2.522l-.189-.126L69.923 9.9c2.648.126 7.944.568 11.475 1.198.378.063.756.19 1.072.441.063 0 .063.063.126.063l.126.063c1.513.316 3.152-.126 4.665-.252.19 0 .442 0 .694.063l.19.063.377.063c2.522.316 5.107.568 7.63.757l.125.19 1.388 1.765.441.567c-.378.126-2.837 1.009-3.279 1.198h-.189l-1.64.063.316-.063-1.891 1.072-.126.063h-.253l-4.035.126h.252c-2.08.567-4.16 1.135-6.305 1.45-.441.063-1.072.063-1.513-.063-.567-.063-1.072.315-1.891.19a2.388 2.388 0 01-.82-.38c-.126-.125 0 0 .063.064.063.063.063.063.126.063h.063c-.252-.063-.693.063-.945.063-.946.063-1.766.315-2.775.252-.378-.063-.882-.189-1.135-.567l-.063-.063c0 .063.063.063.126.126.253.189.379.126.316.189-1.64.19-3.279 1.009-4.792 1.702h-.19c-3.656-.063-7.88-.189-11.285-.378-2.144.19-4.225.378-6.368.568v-.379z" fill="#A48F65"/><path d="M51.701 4.855C57.313 2.963 63.113 1.45 68.914.063 69.67 0 70.49.063 71.31 0c.756 0 1.513 0 2.333.063 2.71.504 5.737 1.198 8.448 1.702.82.19 2.144.379 2.775.505 3.53.126 7.061.063 10.529-.063 3.53-.126 6.998-.379 10.529-.505.946-.189 3.657-.567 5.233-.189 1.072.315 1.324.379 2.333.505 2.081.189 4.225.441 6.305 1.008 4.981 1.324 10.656 1.577 15.826 1.766 3.341.189 6.62.378 9.962.693v.253c-4.981.504-9.962.756-15.006.882-4.225.063-8.449-.315-12.547-1.45-2.333-.63-5.107-.63-7.377-1.45-1.45-.315-3.153-.126-4.666 0-7.061-.252-14.123-.883-21.184-.568-2.775-.315-5.864-.378-8.638-.756l-2.838-.378h.19c-.694 0-1.45 0-2.144.063h-2.144.252c-2.9.63-5.8 1.198-8.764 1.702-2.963.504-5.863.946-8.827 1.324l-.189-.252z" fill="#A48F65"/><path d="M33.984 66.644h-.568V60.15H30.58v-.441h3.405v6.935zm3.026-1.387h-.567l2.018-5.107h-3.216v-1.387h.504v.945h3.405l-2.144 5.549zm4.036-5.548h-.567v3.089h.567v-3.09zm5.17 0v5.107h.82v.44H42.37v-.44h3.278V60.15H42.37v-.441h3.847zm7.25 2.648c0 .756-.126 1.387-.315 1.765-.19.441-.505.694-.883.883-.378.189-.883.252-1.513.252h-2.333l-.504-5.549h.567l.505 5.108h1.765c.504 0 .946-.064 1.261-.19a1.19 1.19 0 00.694-.756c.126-.378.252-.883.252-1.576v-2.585h.567v2.648h-.063zm-2.396 1.135h-.567v-3.783h.567v3.782zm7.63-3.783v5.107h.756v.44h-4.602v-.44h3.279V60.15h-3.28v-.441H58.7zm9.079 5.548h-.568l-2.459-3.405c-.567.063-.882.442-.882 1.135v2.27h-.568v-2.27c0-.441.126-.757.316-1.009.189-.252.504-.441.882-.504l-1.26-1.765h.567l2.333 3.215c.315 0 .504-.126.693-.315.126-.19.252-.442.252-.82v-2.08h.568v2.08c0 .441-.126.82-.316 1.072-.189.252-.504.378-.882.441l1.324 1.955zm1.955-5.548h-.568v5.548h.568v-5.549zm1.766 0h4.413v5.548h-.568V60.15H71.5v-.441zm.062 2.27h.568v3.278h-.568v-3.279zm8.953-2.27h4.413v5.548h-.567V60.15h-3.846v-.441zm.063 2.27h.567v3.278h-.567v-3.279zm8.512-2.27v.44h-1.072a3.565 3.565 0 00-.378.505 2.35 2.35 0 00-.126.757c0 .252.063.567.126.946l.63 2.963h-.567l-.567-2.9c-.063-.316-.126-.63-.126-.883 0-.568.189-1.009.504-1.324H86.19v-.441h2.9v-.063zm1.009 0h4.413v5.548h-.567V60.15h-3.846v-.441zm.063 2.27h.567v3.278h-.567v-3.279zm10.844-2.27c.694 0 1.198.189 1.514.504.315.378.504.946.504 1.702v4.729h-.567v-4.729c0-.63-.126-1.135-.379-1.387-.252-.252-.63-.441-1.198-.441h-1.324v2.837h-.567v-3.215h2.017zm4.351 0h-.568v5.548h.568v-5.549zm1.26 5.548v-.441h.757c.315 0 .567-.063.693-.253.126-.189.189-.44.189-.82v-3.656h-1.197v-.442h1.702v4.099c0 .504-.063.882-.252 1.135-.189.189-.505.315-1.009.315h-.883v.063zm3.847-5.548h4.413v5.548h-.567V60.15h-3.846v-.441zm.063 2.27h.567v3.278h-.567v-3.279zM25.22 51.953c.315-.063.63-.126 1.702-.126h.315c0-2.017-.189-6.242-.315-7.629h-.063c-.379 0-1.261 0-1.576-.126l.378-1.828c.63.126 2.017.063 3.278.063h3.468c3.09 0 3.657.756 3.657 4.35v7.125h-1.64v-6.557c0-2.081-.251-3.027-2.206-3.027h-3.72c.126 1.324.315 6.18.315 7.63l-.315 1.89h-1.64c-.819 0-1.575 0-2.08.064l.442-1.829zm13.618-3.216c.883-1.324 1.324-2.395 1.324-3.215 0-.694-.378-.946-1.387-1.198-.504-.126-.946-.252-1.261-.441l.378-1.829c.316.126.694.252 1.261.378 2.018.442 2.712 1.072 2.712 2.649 0 1.324-.631 2.774-1.64 4.35l-1.387-.694zm4.666-6.367l2.017-.19c.127.505.442 2.081 1.072 5.99 2.08-.504 2.46-1.324 2.46-2.837 0-.82-.253-2.017-.568-2.963l1.954-.19c.19.694.442 1.83.442 2.901 0 1.954-.568 3.783-4.162 4.476.063.19.252 1.703.379 2.396.441-.063 1.26-.126 2.27-.315 2.584-.567 4.16-1.702 4.16-5.233 0-1.387-.314-2.963-.693-3.972l2.018-.19c.252.757.504 2.144.504 3.72 0 5.17-3.026 6.873-6.305 7.504-1.324.252-2.648.378-3.341.441-.379-2.774-1.64-9.836-2.207-11.538zm14.249 8.575c0-2.081.505-3.973 1.955-5.549a42.003 42.003 0 00-2.837-2.9l.063-.126 2.27-.19c1.071 1.072 2.647 2.838 4.854 5.612.82-.567 1.387-1.387 1.387-2.774 0-.82-.252-1.766-.63-2.648l2.08-.19c.253.82.379 1.577.379 2.46a4.79 4.79 0 01-2.396 4.16c1.135 1.388 2.9 3.91 3.53 4.919h-2.206c-.694-1.135-2.522-3.72-5.548-7.25-.946 1.134-1.135 2.647-1.072 3.971 0 1.198.315 2.396.567 3.279h-2.017c-.19-.82-.379-1.829-.379-2.774zm17.654-3.72c0-2.081-.252-3.027-2.206-3.027H71.12c-1.261 0-2.018-.063-2.333-.126l.378-1.891c.442.063 1.514.063 2.9.063h1.325c3.09 0 3.657.756 3.657 4.35v7.125h-1.64v-6.494zm3.846 4.728c.63-.126 2.144-.126 3.342-.126h3.216v-4.476c-.064-2.27-.316-3.09-2.27-3.09h-1.829c-1.198 0-2.017-.063-2.333-.126l.379-1.891c.441.063 1.324.063 2.71.063h1.64c3.027 0 3.342 1.387 3.342 4.287v3.468c0 .441-.063 1.45-.063 1.765H88.9l-.378 1.892h-6.873c-.882 0-2.207 0-2.71.063l.314-1.829zm15.889-3.216c.883-1.324 1.324-2.395 1.324-3.215 0-.694-.378-.946-1.387-1.198-.504-.126-.946-.252-1.261-.441l.378-1.829c.316.126.694.252 1.261.378 2.018.442 2.711 1.072 2.711 2.649 0 1.324-.63 2.774-1.639 4.35l-1.387-.694zm5.107 3.216c.505-.063 1.892-.063 3.216-.126h4.539v-3.783c0-2.333-.756-3.216-3.341-3.657a28.691 28.691 0 00-2.333-.378c-.315.63-.568 1.26-.568 1.702 0 .757.505 1.261 2.018 1.513l-.441 1.829c-2.333-.316-3.153-1.387-3.153-2.9 0-1.325.946-2.9 1.387-4.099.316.063 1.513.252 3.279.505 3.152.441 4.792 1.45 4.729 5.107v4.287c0 .252-.19 1.513-.253 1.765h-6.557c-1.072 0-2.396 0-2.837.063l.315-1.828zm14.312-4.792c0-1.828-.189-2.459-1.828-2.837-.757-.19-1.135-.252-1.45-.378l.378-1.829c.252.126.694.19 1.45.315 2.333.505 3.09 1.261 3.09 4.477v6.873h-1.64v-6.62zm3.909 4.729c.505-.063 1.198-.063 2.585-.063h1.45V47.16c0-1.828-.189-2.333-2.08-2.774-.757-.19-1.513-.315-1.829-.441l.379-1.829c.252.126.882.252 1.828.442 2.459.504 3.405 1.198 3.405 4.287v5.107l-.379 1.828h-2.9c-.883 0-2.333 0-2.774.063l.315-1.954z" fill="#000C22"/></svg>