<svg width="368" height="35" fill="none" xmlns="http://www.w3.org/2000/svg"><path d="M359.373 18.952h-6.506V7.072h6.506c3.96 0 6.223 2.404 6.223 5.94.141 3.535-2.263 5.94-6.223 5.94zm.283-13.72h-8.911v24.751h2.263V20.79h6.789c5.233 0 8.203-3.111 8.203-7.778-.142-4.81-3.112-7.78-8.344-7.78zm-18.528 0V19.8c0 5.374-3.111 8.486-8.203 8.486-5.091 0-8.061-3.253-8.061-8.486V5.233h-2.263v14.709c0 6.505 3.819 10.324 10.324 10.324 6.506 0 10.325-3.96 10.325-10.324V5.232h-2.122zm-36.913 23.054c-6.081 0-10.466-4.526-10.466-10.749 0-6.223 4.385-10.748 10.466-10.748 5.94 0 10.324 4.525 10.324 10.748.142 6.223-4.242 10.749-10.324 10.749zm0 2.121c7.213 0 12.587-5.374 12.587-12.728 0-7.355-5.374-12.729-12.587-12.729s-12.587 5.374-12.587 12.729c0 7.354 5.374 12.728 12.587 12.728zM271.403 7.071h7.779c3.677 0 5.94 2.122 5.94 5.375 0 3.394-2.263 5.516-5.94 5.516h-7.779V7.072zm15.841 5.375c0-4.385-2.971-7.355-7.779-7.355h-10.183v24.75h2.263v-10.04h7.92l5.516 10.182h2.263v-.141l-5.658-10.183c3.536-.707 5.658-3.395 5.658-7.213zm-24.326 3.818h-11.173v1.698h9.193c.282 6.223-3.819 10.324-9.9 10.324-6.223 0-10.466-4.384-10.466-10.749 0-6.364 4.243-10.748 10.466-10.748 3.535 0 6.505 1.555 8.202 3.818l1.415-1.273c-1.98-2.687-5.516-4.525-9.759-4.525-7.496 0-12.587 5.374-12.587 12.728 0 7.355 5.233 12.729 12.587 12.729 8.062.141 12.87-5.657 12.022-14.002zm-38.61 13.295V4.667h-4.95V20.79L205.922 4.667h-3.536v24.75h4.809V13.436l13.436 15.981h3.677v.142zm-39.035-4.243c-4.525 0-7.778-3.394-7.778-8.203 0-4.667 3.394-8.203 7.778-8.203 4.526 0 7.779 3.394 7.779 8.203 0 4.667-3.253 8.203-7.779 8.203zm0 4.667c7.213 0 12.729-5.516 12.729-12.87 0-7.354-5.516-12.87-12.729-12.87-7.213 0-12.728 5.516-12.728 12.87 0 7.354 5.515 12.87 12.728 12.87zm-17.113-.424V4.667h-4.95V20.79L149.916 4.667h-3.536v24.75h4.809V13.436l13.436 15.981h3.535v.142zm-40.731-8.486l3.818-9.617 3.819 9.617h-7.637zm5.657-16.406h-3.677l-10.608 24.609v.283h5.092l1.838-4.526h10.749l1.839 4.526h5.091v-.283L133.086 4.667zm-14.568 10.325h-11.455v3.818h6.788c-.283 3.96-3.253 6.506-7.354 6.506-4.526 0-7.779-3.253-7.779-8.203 0-4.95 3.253-8.344 7.779-8.344 2.263 0 4.809 1.131 6.223 2.97l3.253-2.829c-2.122-2.687-5.799-4.526-9.617-4.526-7.496 0-12.73 5.375-12.73 12.729 0 7.496 5.375 12.729 12.73 12.729 8.061.141 13.152-6.082 12.162-14.85zM51.622 2.97c5.233 0 9.617 2.97 11.88 7.213h3.253C64.21 4.243 58.411 0 51.622 0c-6.647 0-12.446 4.101-14.991 9.759l1.98 3.252C40.025 7.213 45.258 2.97 51.622 2.97z" fill="#030404"/><path d="M65.2 17.396H50.772v2.97h14.002c-1.415 6.223-6.789 10.748-13.295 10.748-5.657 0-10.465-3.535-12.587-8.485l-.424-.849-3.394-6.223-.425-.707-3.818-6.506C27.862 3.253 22.629 0 16.547 0 8.91 0 2.404 5.516.566 12.87.14 14.143 0 15.416 0 16.69v.424c0 9.476 7.496 17.113 16.547 17.113 6.789 0 12.587-4.101 15.133-10.041l-.566-1.273-1.272-2.263-.425-.707H16.123v2.97h12.87c-2.121 4.808-6.93 8.203-12.446 8.203-6.506 0-11.88-4.668-13.294-10.89-.283-.99-.424-2.122-.424-3.253 0-.425 0-.99.141-1.415C3.677 8.486 9.476 2.97 16.547 2.97c4.809 0 9.052 2.546 11.598 6.506.282.424.424.848.707 1.273l.99 1.697 3.252 6.081 1.132 2.263 2.97 4.95c2.829 5.092 8.203 8.345 14.284 8.345 9.052 0 16.406-7.496 16.548-16.83h-2.829v.14z" fill="#030404"/></svg>