<svg width="19" height="19" fill="none" xmlns="http://www.w3.org/2000/svg"><g clip-path="url(#clip0_11_958)"><g clip-path="url(#clip1_11_958)"><g clip-path="url(#clip2_11_958)"><mask id="mask0_11_958" style="mask-type:luminance" maskUnits="userSpaceOnUse" x="0" y="0" width="19" height="19"><path d="M18.38.8h-18v18h18V.8z" fill="#fff"/></mask><g mask="url(#mask0_11_958)"><path d="M9.38.8a9 9 0 100 18 9 9 0 000-18zm.282 16.37a.415.415 0 01-.281.11.42.42 0 01-.284-.113 9.75 9.75 0 01-2.73-4.209 12.368 12.368 0 016.034-.02 9.752 9.752 0 01-2.74 4.231zm-3.634-5.554A10.128 10.128 0 015.86 9.8c0-.615.059-1.222.167-1.816a13.755 13.755 0 006.708.022c.106.587.163 1.186.163 1.794 0 .607-.057 1.207-.162 1.794a13.76 13.76 0 00-6.71.022zm3.07-9.186a.415.415 0 01.281-.111c.072 0 .18.02.284.113a9.752 9.752 0 012.737 4.23 12.37 12.37 0 01-6.033-.02A9.75 9.75 0 019.098 2.43zm4.97 5.171a13.646 13.646 0 002.209-1.025c.46.98.718 2.072.718 3.224a7.568 7.568 0 01-.718 3.223c-.71-.41-1.45-.752-2.208-1.024.14-.717.215-1.453.215-2.2 0-.746-.076-1.481-.215-2.198zm1.51-2.22a12.26 12.26 0 01-1.854.873 11.23 11.23 0 00-2.046-3.715 7.646 7.646 0 013.9 2.843zM7.081 2.54a11.224 11.224 0 00-2.035 3.683c-.63-.24-1.245-.532-1.837-.879A7.644 7.644 0 017.082 2.54zm-4.58 3.994c.706.414 1.44.76 2.195 1.037a11.454 11.454 0 000 4.458c-.755.277-1.49.622-2.196 1.036A7.57 7.57 0 011.765 9.8 7.57 7.57 0 012.5 6.534zm.708 7.721c.592-.346 1.207-.64 1.837-.879a11.224 11.224 0 002.035 3.684 7.643 7.643 0 01-3.872-2.805zm8.468 2.805a11.232 11.232 0 002.046-3.715c.636.236 1.255.528 1.853.873a7.643 7.643 0 01-3.899 2.842z" fill="#000"/></g></g></g></g><defs><clipPath id="clip0_11_958"><path fill="#fff" transform="translate(.38 .8)" d="M0 0h18v18H0z"/></clipPath><clipPath id="clip1_11_958"><path fill="#fff" transform="translate(.38 .8)" d="M0 0h18v18H0z"/></clipPath><clipPath id="clip2_11_958"><path fill="#fff" transform="translate(.38 .8)" d="M0 0h18v18H0z"/></clipPath></defs></svg>