<svg width="438" height="77" fill="none" xmlns="http://www.w3.org/2000/svg"><rect width="438" height="76.58" rx="15" fill="#fff" fill-opacity=".9"/><path d="M419.904 40.814h-7.449V27.211h7.449c4.535 0 7.126 2.753 7.126 6.802.162 4.048-2.591 6.801-7.126 6.801zm.324-15.708h-10.202v28.34h2.591V42.92h7.773c5.992 0 9.393-3.563 9.393-8.907-.162-5.506-3.563-8.907-9.555-8.907zm-21.214 0v16.68c0 6.154-3.563 9.716-9.393 9.716s-9.231-3.724-9.231-9.716v-16.68h-2.591v16.842c0 7.45 4.373 11.822 11.822 11.822 7.449 0 11.822-4.535 11.822-11.822V25.106h-2.429zm-42.267 26.396c-6.964 0-11.984-5.182-11.984-12.307 0-7.126 5.02-12.308 11.984-12.308 6.801 0 11.822 5.182 11.822 12.308.161 7.125-4.859 12.307-11.822 12.307zm0 2.43c8.259 0 14.413-6.154 14.413-14.575s-6.154-14.575-14.413-14.575-14.413 6.154-14.413 14.575c0 8.42 6.154 14.575 14.413 14.575zm-37.571-26.72h8.907c4.211 0 6.802 2.428 6.802 6.153 0 3.887-2.591 6.316-6.802 6.316h-8.907V27.21zm18.138 6.153c0-5.02-3.401-8.421-8.907-8.421h-11.66v28.34h2.591V41.786h9.069l6.316 11.66h2.591v-.162l-6.478-11.66c4.049-.81 6.478-3.887 6.478-8.259zm-27.854 4.372h-12.794v1.944h10.527c.323 7.125-4.373 11.822-11.336 11.822-7.126 0-11.984-5.02-11.984-12.308s4.858-12.308 11.984-12.308c4.048 0 7.449 1.782 9.392 4.373l1.62-1.458c-2.268-3.077-6.316-5.182-11.174-5.182-8.583 0-14.413 6.154-14.413 14.575 0 8.42 5.992 14.575 14.413 14.575 9.23.162 14.736-6.478 13.765-16.033zM265.25 52.96V24.458h-5.668V42.92l-15.385-18.462h-4.048v28.34h5.506v-18.3l15.384 18.3h4.211v.162zm-44.696-4.858c-5.183 0-8.907-3.887-8.907-9.393 0-5.344 3.886-9.392 8.907-9.392 5.182 0 8.906 3.886 8.906 9.392 0 5.344-3.724 9.393-8.906 9.393zm0 5.344c8.259 0 14.574-6.316 14.574-14.737 0-8.42-6.315-14.736-14.574-14.736s-14.575 6.315-14.575 14.736 6.316 14.737 14.575 14.737zm-19.595-.486V24.458h-5.668V42.92l-15.223-18.462h-4.048v28.34h5.506v-18.3l15.384 18.3h4.049v.162zm-46.64-9.716l4.373-11.012 4.372 11.012h-8.745zm6.478-18.785h-4.21l-12.146 28.177v.324h5.83l2.105-5.182h12.308l2.105 5.182h5.83v-.324l-11.822-28.178zm-16.68 11.821H131v4.373h7.773c-.324 4.534-3.725 7.449-8.421 7.449-5.182 0-8.907-3.725-8.907-9.393 0-5.668 3.725-9.554 8.907-9.554 2.591 0 5.506 1.295 7.125 3.4l3.725-3.238c-2.429-3.077-6.64-5.182-11.012-5.182-8.583 0-14.575 6.153-14.575 14.574 0 8.583 6.154 14.575 14.575 14.575 9.231.162 15.061-6.963 13.927-17.004zM67.518 22.515c5.992 0 11.012 3.4 13.603 8.26h3.725c-2.915-6.802-9.554-11.66-17.328-11.66-7.61 0-14.25 4.696-17.166 11.173l2.268 3.725c1.62-6.64 7.611-11.498 14.898-11.498z" fill="#030404"/><path d="M83.065 39.033H66.546v3.4H82.58c-1.62 7.126-7.773 12.309-15.222 12.309-6.478 0-11.984-4.05-14.413-9.717l-.486-.972-3.887-7.125-.486-.81-4.372-7.45c-3.4-5.83-9.393-9.554-16.356-9.554-8.745 0-16.194 6.316-18.3 14.737-.485 1.458-.647 2.915-.647 4.372v.486c0 10.85 8.582 19.595 18.947 19.595 7.773 0 14.413-4.696 17.328-11.498l-.648-1.457-1.458-2.591-.486-.81H26.871v3.4h14.737c-2.43 5.507-7.935 9.394-14.251 9.394-7.45 0-13.603-5.345-15.223-12.47-.324-1.134-.486-2.43-.486-3.725 0-.485 0-1.133.162-1.62.81-8.096 7.45-14.412 15.547-14.412 5.506 0 10.364 2.915 13.279 7.45.324.485.486.971.81 1.457l1.133 1.943 3.725 6.964 1.295 2.59L51 48.589c3.24 5.83 9.393 9.554 16.356 9.554 10.365 0 18.786-8.583 18.948-19.27h-3.239v.161z" fill="#030404"/></svg>