<svg width="271" height="53" viewBox="0 0 271 53" fill="none" xmlns="http://www.w3.org/2000/svg">
<path d="M51.9184 35.8009C70.7652 34.6716 76.3107 35.8673 80.4213 37.0631C84.5319 38.2588 88.3711 38.2588 87.6343 44.935C86.8975 51.5779 79.9559 49.7179 76.3107 49.9504C72.6654 50.1829 21.9418 46.7618 16.9005 46.3964C11.8204 46.0643 11.0448 42.0453 11.2387 40.8496C11.4326 39.6538 13.1389 35.4023 22.6786 36.0666C32.1796 36.6645 51.9184 35.8009 51.9184 35.8009Z" fill="#5A4638"/>
<path d="M66.1117 19.891C78.5599 19.6918 81.4296 17.3667 83.5624 25.2386C85.6953 33.1105 15.5432 32.1473 10.657 32.1805C-4.15675 32.2137 -1.28707 26.6669 5.80958 23.279C10.308 21.1864 61.3418 19.9575 66.1117 19.891Z" fill="#5A4638"/>
<path d="M10.5019 8.93018C9.80387 11.8531 12.8674 14.9088 25.1218 14.5767C37.4536 14.2113 91.0081 17.6989 92.9083 12.4842C94.7697 7.26944 87.867 3.25045 80.6928 3.41653C73.5186 3.5826 24.9666 3.71546 22.5235 3.8151C20.0416 3.88153 11.8204 3.38331 10.5019 8.93018Z" fill="#5A4638"/>
<path d="M255.622 26.8375L261.128 26.8707L261.206 11.3594C261.245 5.54686 259.034 3.28826 253.838 3.28826L247.323 3.25505V6.87545H252.132C254.691 6.87545 255.699 7.90511 255.699 10.9277L255.622 26.8375ZM237.9 3.22183H233.634L232.664 7.17438H232.587L231.462 3.18861H226.421L229.988 14.3488L226.498 26.7711L231.85 26.8043L237.046 6.84224C238.559 6.84224 239.489 7.17438 239.451 10.1637L239.412 23.2171H235.34V26.8375L244.919 26.8707L244.996 10.9609C244.957 5.04864 242.631 3.22183 237.9 3.22183ZM217.308 26.7047L222.814 26.7379L222.931 3.1554L214.942 3.12219V6.7426H217.424L217.308 26.7047ZM204.743 3.08897L192.683 3.05576V6.67616H194.428L194.35 23.0178H191.17V26.6382L199.857 26.6715L199.934 6.70938H203.114C205.092 6.70938 206.062 7.27403 206.023 10.2634L205.945 26.7047L211.452 26.7379L211.529 10.828C211.529 4.98221 209.397 3.12219 204.743 3.08897ZM170.074 19.0653C173.021 16.0759 174.107 13.1863 174.107 8.90156L174.146 3.02254L166.778 2.98933V6.60973H168.678V8.40333C168.678 12.6216 168.174 14.9799 166.39 17.172L170.074 19.0653ZM159.565 26.5386L172.517 26.5718C179.808 26.605 183.027 24.2468 183.065 17.006L183.143 3.02254L175.658 2.98933V6.60973H177.636L177.597 17.1388C177.597 21.6228 176.24 22.9514 172.517 22.9514L165.149 22.9182L165.227 2.95611L159.72 2.9229L159.565 26.5386ZM149.133 26.5054L154.64 26.5386L154.756 2.95611L146.768 2.9229V6.54331H149.25L149.133 26.5054ZM142.773 22.885L142.851 2.9229L129.55 2.88968V6.51009L137.344 6.54331L137.267 22.885L129.472 22.8185V26.4389L144.984 26.4722V22.8518L142.773 22.885ZM114.464 26.4057L120.281 26.4389C124.276 22.4532 126.098 17.9692 126.137 12.8873L126.176 2.85647L117.45 2.82325V0H112.448L112.409 6.44366L120.63 6.47688V12.8541C120.63 17.8363 118.691 21.6228 114.464 26.4057Z" fill="#5A4638"/>
<path d="M268.923 35.5066L266.441 39.7581L263.998 35.5066H262.486L262.447 42.1827H263.455L263.494 36.5362L265.976 40.7213H266.829L269.35 36.5362L269.311 42.1827H270.319L270.358 35.5066H268.923ZM255.816 41.4188V38.9609H259.383V38.2634H255.816V36.2041H259.81V35.4734H254.73L254.691 42.1495H259.849V41.4188H255.816ZM247.439 42.1495H252.364V41.4188H248.486L248.525 35.4734H247.439V42.1495ZM240.381 39.7249L241.816 36.3702L243.212 39.7581L240.381 39.7249ZM244.182 42.1163H245.345L242.32 35.4069H241.273L238.171 42.0831H239.334L240.071 40.3891H243.445L244.182 42.1163ZM233.828 42.1495C235.65 42.1495 236.62 41.5185 236.62 40.4888C236.62 39.4924 236.077 38.9609 234.099 38.2302C232.858 37.7652 232.393 37.433 232.393 36.9016C232.393 36.3702 232.897 35.9716 233.944 35.9716C235.263 35.9716 235.573 36.6027 235.534 37.433H236.503C236.581 36.2705 236.038 35.3073 233.905 35.3073C232.16 35.3073 231.307 36.0048 231.307 36.8684C231.307 37.732 231.85 38.197 233.789 38.9277C235.185 39.4259 235.573 39.8245 235.573 40.4556C235.573 41.0534 234.991 41.452 233.905 41.452C232.781 41.452 232.083 40.9538 232.276 39.6916H231.268C230.997 41.5184 232.199 42.1495 233.828 42.1495ZM225.529 42.1163C227.623 42.1163 228.592 41.3856 228.592 39.6916V35.4069H227.507V39.6916C227.507 40.9206 226.925 41.452 225.529 41.4188C224.133 41.4188 223.551 40.9206 223.551 39.6584V35.3737H222.465V39.6584C222.465 41.3856 223.435 42.1163 225.529 42.1163ZM215.795 36.038H217.152C218.277 36.038 218.82 36.4366 218.82 37.3002C218.82 38.1638 218.316 38.5623 217.152 38.5623H215.795V36.038ZM219.906 37.3002C219.906 35.9716 219.13 35.3405 217.424 35.3405H214.709L214.671 42.0167H215.756V39.2266H217.152L218.704 42.0167H219.79L218.161 39.1602C219.363 39.0273 219.906 38.3963 219.906 37.3002ZM208.078 41.2859V38.8281H211.646V38.1305H208.078V36.0712H212.072V35.3405H206.992L206.953 42.0167H212.111V41.2859H208.078ZM201.175 41.9835H202.145C203.541 41.9835 204.006 41.5849 204.006 40.3891L204.045 35.3073H202.959L202.92 40.2895C202.92 41.0202 202.649 41.2527 201.951 41.2527H201.175V41.9835ZM191.868 41.9502H196.793V41.2195H192.915L192.954 35.2741H191.868V41.9502ZM184.81 39.5588L186.245 36.2041L187.641 39.5588H184.81ZM188.65 41.9502H189.813L186.788 35.2409H185.741L182.639 41.917H183.802L184.539 40.2231H187.913L188.65 41.9502ZM177.714 41.917H178.838L181.824 35.2409H180.661L178.257 40.7877L175.93 35.2076H174.767L177.714 41.917ZM169.919 41.2527C168.562 41.2527 167.864 40.6549 167.864 39.2598V37.7984C167.864 36.4366 168.562 35.8387 169.919 35.8387C171.276 35.8387 171.974 36.4366 171.936 37.7984V39.2598C171.936 40.6881 171.276 41.2527 169.919 41.2527ZM169.919 41.9502C172.013 41.9502 173.021 41.1199 173.06 39.1934V37.898C173.06 35.9716 172.052 35.1412 169.958 35.1412C167.864 35.1412 166.817 35.9384 166.817 37.8648V39.1602C166.778 41.1199 167.825 41.9502 169.919 41.9502ZM162.978 35.1744V38.0309H158.983V35.1744H157.897L157.859 41.8506H158.944V38.7616H162.939V41.8506H164.025L164.063 35.1744H162.978ZM152.468 41.917C154.291 41.917 155.26 41.2859 155.26 40.2563C155.26 39.2598 154.718 38.7284 152.74 37.9977C151.499 37.5327 151.033 37.2005 151.033 36.6691C151.033 36.1377 151.538 35.7391 152.585 35.7391C153.903 35.7391 154.213 36.3702 154.175 37.2005H155.144C155.222 36.038 154.679 35.0748 152.546 35.0748C150.801 35.0748 149.948 35.7723 149.948 36.6359C149.948 37.4995 150.491 37.9645 152.43 38.6952C153.826 39.1934 154.213 39.592 154.213 40.2231C154.213 40.8209 153.632 41.2195 152.546 41.2195C151.421 41.2195 150.723 40.7213 150.917 39.4591H149.909C149.676 41.2859 150.84 41.917 152.468 41.917ZM145.139 35.1412L139.477 35.108V35.8387H141.804L141.765 41.7842H142.851L142.89 35.8387H145.178L145.139 35.1412ZM134.436 41.1531C133.079 41.1531 132.381 40.5552 132.381 39.1602V37.6987C132.381 36.3369 133.079 35.7391 134.436 35.7391C135.793 35.7391 136.491 36.3369 136.452 37.6987V39.1602C136.491 40.5552 135.793 41.1531 134.436 41.1531ZM134.436 41.8506C136.53 41.8506 137.538 41.0202 137.577 39.0938V37.7984C137.577 35.8719 136.569 35.0416 134.475 35.0416C132.381 35.0416 131.333 35.8387 131.333 37.7652V39.0606C131.333 40.987 132.342 41.8174 134.436 41.8506ZM127.068 35.0748L124.586 39.3263L122.143 35.0748H120.63L120.592 41.751H121.6L121.639 36.1044L124.121 40.2895H124.974L127.494 36.1044L127.456 41.751H128.464L128.503 35.0748H127.068ZM113.534 39.3263L114.969 35.9716L116.365 39.3263H113.534ZM117.334 41.7177H118.497L115.473 35.0084H114.426L111.323 41.6845H112.487L113.223 39.9906H116.597L117.334 41.7177ZM105.545 35.7059H106.902C108.027 35.7059 108.57 36.1044 108.57 36.968C108.57 37.8316 108.066 38.2302 106.902 38.2302H105.545V35.7059ZM109.656 36.968C109.656 35.6394 108.88 35.0084 107.174 35.0084H104.459L104.421 41.6845H105.506V38.8945H106.902L108.454 41.6845H109.539L107.911 38.8281C109.152 38.662 109.656 38.0309 109.656 36.968Z" fill="#5A4638"/>
<path d="M128.27 47.6964C129.239 47.6964 129.433 48.0285 129.433 48.6928C129.433 49.49 129.472 50.3203 129.588 51.2503L128.968 51.35L129.045 49.2242C129.084 48.5599 128.774 48.3939 128.154 48.3939H126.951C126.641 49.025 126.641 49.2575 126.641 49.3571C126.641 49.4567 126.641 49.6893 127.107 50.6193L126.99 51.2503H126.098C125.904 51.2503 125.866 51.2503 125.788 51.3168L125.555 51.2836L125.71 50.7521C125.749 50.5861 125.788 50.5861 126.331 50.5861H126.525C126.176 49.8221 126.137 49.5564 126.137 49.49C126.137 49.4235 126.176 49.2575 126.641 48.3939H126.408C126.059 48.3939 125.943 48.3607 125.982 48.1282L126.059 47.4639H126.331C126.331 47.6299 126.447 47.6964 126.758 47.6964H128.27Z" fill="#5A4638"/>
<path d="M132.342 47.7296C133.04 47.7296 133.195 47.9953 133.195 48.6264C133.195 49.5232 133.234 50.2539 133.35 51.2836L132.73 51.3832L132.807 49.1578C132.846 48.4935 132.613 48.4271 132.187 48.4271C131.76 48.4271 131.644 48.3939 131.682 48.1614L131.76 47.4971L132.032 47.5303C132.032 47.6632 132.148 47.7296 132.342 47.7296Z" fill="#5A4638"/>
<path d="M136.026 47.4971C136.026 47.6631 136.142 47.7296 136.452 47.7296H138.857C139.206 47.7296 139.322 47.7296 139.283 47.9953L139.206 48.6596L139.361 51.2503L138.779 51.35L138.857 48.9253C138.857 48.4935 138.779 48.3939 138.314 48.3939H136.491V51.2503L135.871 51.35L136.142 48.3939C135.832 48.3939 135.677 48.3607 135.716 48.1282L135.793 47.4639L136.026 47.4971Z" fill="#5A4638"/>
<path d="M142.308 47.4639C142.308 47.6299 142.424 47.6632 142.735 47.7296C143.2 47.796 143.665 47.8624 144.402 47.9289C144.906 47.9953 145.1 48.726 145.1 49.5564C145.1 50.2207 144.945 50.9514 144.751 51.3168H142.153C141.959 51.3168 141.92 51.3168 141.843 51.3832L141.61 51.35L141.765 50.8185C141.804 50.6525 141.843 50.6525 142.386 50.6525H144.48C144.596 50.4532 144.712 50.0546 144.712 49.6892C144.712 49.1578 144.557 48.6596 144.014 48.5932C143.549 48.5267 143.122 48.4935 142.696 48.4271C142.618 48.6264 142.618 48.7592 142.618 48.8589C142.618 49.0914 142.735 49.1246 143.316 49.191L143.2 49.8553C142.424 49.7889 142.114 49.7225 142.114 49.3571C142.114 49.191 142.192 48.8589 142.386 48.4271C142.114 48.3939 141.998 48.3274 142.037 48.0949L142.114 47.4639H142.308Z" fill="#5A4638"/>
<path d="M148.435 51.4164C147.815 50.2539 147.66 49.5896 147.66 49.4235C147.66 49.2575 147.815 48.7925 147.97 48.4271H147.66C147.311 48.4271 147.194 48.3939 147.233 48.1614L147.311 47.4971L147.582 47.5303C147.582 47.6964 147.698 47.7628 148.009 47.7628H148.552L148.435 48.4271C148.203 48.56 148.125 48.9253 148.125 49.2907C148.125 49.5896 148.396 50.1543 148.668 50.5861L149.444 48.4603C149.172 48.4603 149.056 48.3939 149.056 48.1614L149.133 47.5303H149.405C149.405 47.6964 149.521 47.7628 149.831 47.7628H150.374L150.258 48.4271C149.754 48.4603 149.715 48.56 148.978 50.6857C149.56 50.5861 150.413 50.42 150.684 50.2871C151.266 49.9882 151.654 49.025 151.654 48.7593C151.654 48.56 151.576 48.4935 151.344 48.4935C150.995 48.4935 150.878 48.4603 150.917 48.2278L150.995 47.5635L151.266 47.5967C151.266 47.7628 151.382 47.8292 151.693 47.8292H151.77C152.119 47.8292 152.236 47.8625 152.236 48.095C152.236 48.9253 151.344 50.7853 150.762 50.9846C150.142 51.1839 149.211 51.35 148.435 51.4164Z" fill="#5A4638"/>
<path d="M154.873 47.796C155.377 47.796 155.532 47.9953 155.532 48.3607C155.532 48.4603 155.493 48.56 155.493 48.6928C155.803 48.3939 156.075 48.095 156.307 47.7628H157.199C158.13 47.7628 158.285 48.6264 158.285 49.5232C158.285 50.1875 158.13 50.9182 158.053 51.3168H156.152C155.958 51.3168 155.92 51.3168 155.842 51.3832L155.609 51.35L155.765 50.8186C155.803 50.6525 155.842 50.6525 156.385 50.6525H157.781C157.82 50.3868 157.859 50.0546 157.897 49.7557C157.897 49.0582 157.742 48.4271 156.889 48.4271C156.23 48.4271 155.571 48.7593 155.377 49.4568C155.222 49.955 155.105 50.5861 155.028 51.2836L154.407 51.3832C154.679 50.6525 155.067 49.2243 155.067 48.7593C155.067 48.4935 154.95 48.4271 154.756 48.4271C154.33 48.4271 154.213 48.3939 154.252 48.1614L154.33 47.4971L154.601 47.5303C154.524 47.7296 154.679 47.796 154.873 47.796Z" fill="#5A4638"/>
<path d="M160.224 46.2681L160.302 45.6038H160.573C160.573 45.7699 160.69 45.8363 161 45.8363H161.31L161.194 46.5006C160.961 46.5006 160.922 46.6335 160.883 46.7996C160.845 47.0321 160.845 47.3642 160.845 47.5635C160.845 47.7296 160.845 47.796 161.116 47.796H162.473C163.171 47.796 163.482 48.0617 163.482 48.6264C163.482 49.2575 163.288 50.2539 162.939 50.5528C162.706 50.7521 162.28 50.885 161.737 51.2171C161.543 51.3168 161.504 51.3832 161.465 51.4496L161.232 51.4164L161.388 50.8185C161.388 50.7521 161.426 50.6857 161.543 50.6193C162.241 50.2871 162.512 50.1875 162.822 49.9882C162.939 49.8221 163.094 49.49 163.094 49.0914C163.094 48.6596 162.784 48.5267 162.357 48.5267H160.883C160.534 48.5267 160.418 48.4603 160.457 48.2278L160.612 46.5671C160.341 46.5338 160.224 46.5006 160.224 46.2681Z" fill="#5A4638"/>
<path d="M169.725 51.4164C169.609 51.0179 169.57 50.6193 169.57 50.2207C169.57 49.6561 169.686 49.1246 169.88 48.5267C169.531 48.5267 169.415 48.4935 169.454 48.261L169.531 47.5967L169.803 47.63C169.803 47.796 169.919 47.8625 170.229 47.8625H171.703C172.944 47.8625 172.983 48.3607 172.983 49.191C172.983 49.5896 172.983 50.5529 172.711 51.4164H169.725ZM170.035 49.9882C170.035 50.42 170.074 50.7521 170.423 50.7521H172.168C172.517 50.7521 172.595 50.5196 172.595 49.8221C172.595 48.8589 172.595 48.56 171.703 48.56H170.307C170.191 48.726 170.035 49.4235 170.035 49.9882Z" fill="#5A4638"/>
<path d="M174.96 46.3346L175.038 45.6703L175.309 45.7035C175.309 45.8696 175.426 45.936 175.736 45.936H176.046L175.93 46.6003C175.697 46.6003 175.658 46.7331 175.62 46.8992C175.581 47.1317 175.581 47.4639 175.581 47.6632C175.581 47.8292 175.581 47.8957 175.852 47.8957H177.21C177.908 47.8957 178.218 48.1614 178.218 48.726C178.218 49.3571 178.024 50.3536 177.675 50.6525C177.442 50.8518 177.016 51.0178 176.473 51.3168C176.279 51.4164 176.24 51.4829 176.201 51.5493L175.969 51.5161L176.124 50.9182C176.124 50.8518 176.163 50.7853 176.279 50.7189C176.977 50.3868 177.248 50.2871 177.559 50.0878C177.675 49.9218 177.83 49.5896 177.83 49.191C177.83 48.7592 177.52 48.6264 177.093 48.6264H175.62C175.271 48.6264 175.154 48.56 175.193 48.3275L175.348 46.6667C175.077 46.6003 174.96 46.5339 174.96 46.3346Z" fill="#5A4638"/>
<path d="M181.63 51.5493C181.01 50.3868 180.855 49.7225 180.855 49.5564C180.855 49.3903 181.01 48.9253 181.165 48.56H180.855C180.506 48.56 180.39 48.5268 180.428 48.2943L180.506 47.63L180.777 47.6632C180.777 47.8292 180.894 47.8957 181.204 47.8957H181.747L181.63 48.56C181.398 48.6928 181.32 49.0582 181.32 49.4236C181.32 49.7225 181.592 50.2871 181.863 50.7189L182.639 48.5932C182.367 48.5932 182.251 48.5268 182.251 48.2943L182.329 47.6632H182.6C182.6 47.8292 182.716 47.8957 183.027 47.8957H183.569L183.453 48.56C182.949 48.5932 182.91 48.6928 182.173 50.8186C182.755 50.7189 183.608 50.5529 183.88 50.42C184.461 50.1211 184.849 49.1578 184.849 48.8921C184.849 48.6928 184.772 48.6264 184.539 48.6264C184.19 48.6264 184.074 48.5932 184.112 48.3607L184.19 47.6964L184.461 47.7296C184.461 47.8957 184.578 47.9621 184.888 47.9621H184.966C185.315 47.9621 185.431 47.9953 185.431 48.2278C185.431 49.0582 184.539 50.9182 183.957 51.1175C183.298 51.2836 182.367 51.4497 181.63 51.5493Z" fill="#5A4638"/>
<path d="M187.952 47.8957C188.65 47.8957 188.805 48.1614 188.805 48.7925C188.805 49.6893 188.843 50.42 188.96 51.4497L188.339 51.5493L188.417 49.3239C188.456 48.6596 188.223 48.5932 187.796 48.5932C187.37 48.5932 187.253 48.56 187.292 48.3275L187.37 47.6632L187.641 47.6964C187.603 47.8292 187.758 47.8957 187.952 47.8957Z" fill="#5A4638"/>
<path d="M191.752 47.8957C192.256 47.8957 192.411 48.095 192.411 48.4603C192.411 48.56 192.411 48.6596 192.372 48.7925C192.683 48.4935 192.954 48.1946 193.187 47.8625H194.079C195.009 47.8625 195.165 48.726 195.165 49.6228C195.165 50.2871 195.009 51.0179 194.932 51.4164H193.032C192.838 51.4164 192.799 51.4164 192.721 51.4829L192.489 51.4497L192.644 50.9182C192.683 50.7521 192.721 50.7521 193.264 50.7521H194.66C194.699 50.4864 194.738 50.1543 194.777 49.8553C194.777 49.1578 194.622 48.5267 193.768 48.5267C193.109 48.5267 192.45 48.8589 192.256 49.5564C192.101 50.0546 191.985 50.6857 191.907 51.3832L191.287 51.4829C191.558 50.7521 191.946 49.3239 191.946 48.8589C191.946 48.5932 191.829 48.5267 191.636 48.5267C191.209 48.5267 191.093 48.4935 191.131 48.261L191.209 47.5967L191.48 47.63C191.403 47.8625 191.519 47.8957 191.752 47.8957Z" fill="#5A4638"/>
<path d="M201.718 50.42C202.067 50.42 202.61 50.7521 202.61 51.3168C202.61 51.9479 201.951 52.28 201.33 52.4461L201.214 52.2136C201.679 52.0475 201.951 51.8482 201.951 51.5161C201.951 51.2171 201.679 51.0179 201.33 50.9514C201.292 50.9514 201.214 50.885 201.214 50.7521C201.253 50.5528 201.486 50.42 201.718 50.42Z" fill="#5A4638"/>
<path d="M206.953 47.9621C207.923 47.9621 208.233 48.261 208.233 48.9253C208.233 49.656 208.117 50.3203 207.884 50.6193C207.729 50.8186 207.574 50.885 206.643 51.3832C206.449 51.4828 206.411 51.5161 206.333 51.5825L206.1 51.5493L206.255 50.9846C206.255 50.9182 206.294 50.8518 206.411 50.7853C207.186 50.3868 207.458 50.2539 207.652 50.0878C207.807 49.8885 207.845 49.6228 207.845 49.3239C207.845 48.7592 207.496 48.6264 206.76 48.6264H205.325C204.976 48.6264 204.859 48.5932 204.898 48.3607L204.976 47.6964H205.247C205.247 47.8624 205.364 47.9289 205.674 47.9289L206.953 47.9621ZM205.557 49.5896V52.7118L204.937 52.8114C205.015 51.7818 205.092 50.7521 205.131 49.7225L205.48 49.5896H205.557Z" fill="#5A4638"/>
<path d="M211.064 47.9621C211.685 47.9621 211.878 48.1946 211.878 48.56C211.878 48.9253 211.685 49.4235 211.529 50.0546L210.909 50.1543C211.18 49.6228 211.374 49.2242 211.374 48.9917C211.374 48.7592 211.219 48.6596 210.793 48.6596H210.676C210.327 48.6596 210.211 48.6264 210.25 48.3939L210.327 47.7296H210.599C210.599 47.9621 210.793 47.9621 211.064 47.9621Z" fill="#5A4638"/>
<path d="M215.679 49.1246L215.873 48.1614C216.067 47.9621 216.377 47.8292 216.687 47.8292C217.54 47.8292 217.851 48.5267 217.851 49.2242C217.851 49.9218 217.501 50.9182 216.997 51.1507C216.493 51.3832 215.679 51.5493 215.058 51.6489C214.438 50.4864 214.283 49.8221 214.283 49.656C214.283 49.49 214.515 49.025 214.709 48.6596H214.399C214.05 48.6596 213.934 48.6264 213.973 48.3939L214.05 47.7296L214.322 47.7628C214.322 47.9289 214.438 47.9953 214.748 47.9953H215.369L215.252 48.6596C214.903 48.7925 214.787 49.2575 214.787 49.5564C214.787 49.8553 215.058 50.4532 215.369 50.9514C215.795 50.885 216.765 50.6857 216.997 50.5196C217.269 50.2871 217.424 49.8553 217.424 49.49C217.424 48.7925 216.959 48.5267 216.571 48.5267C216.144 48.5267 216.067 48.726 215.912 49.1578L215.679 49.1246Z" fill="#5A4638"/>
<path d="M220.565 47.9953C221.263 47.9953 221.418 48.261 221.418 48.8921C221.418 49.7889 221.457 50.5196 221.573 51.5493L220.953 51.6489L221.03 49.4235C221.069 48.7592 220.837 48.6928 220.41 48.6928C219.983 48.6928 219.867 48.6596 219.906 48.4271L219.983 47.7628H220.255C220.216 47.9289 220.332 47.9953 220.565 47.9953Z" fill="#5A4638"/>
<path d="M224.288 47.796C224.288 47.9621 224.404 48.0285 224.714 48.0285H225.723C226.653 48.0285 226.886 48.3607 226.886 49.0582V50.2871C226.886 50.9182 226.964 50.9514 227.39 50.9514L227.274 51.5825H224.249C224.055 51.5825 224.016 51.5825 223.939 51.6489L223.706 51.6157L223.861 51.0843C223.9 50.9182 223.939 50.9182 224.482 50.9182H226.576C226.46 50.3535 226.46 49.8221 226.421 49.3239C226.421 48.8257 226.188 48.6928 225.606 48.6928H224.404C224.055 48.6928 223.939 48.6596 223.978 48.4271L224.055 47.7628L224.288 47.796Z" fill="#5A4638"/>
<path d="M233.711 48.0285C234.332 48.0285 234.526 48.261 234.526 48.6264C234.526 48.9917 234.332 49.49 234.177 50.121L233.556 50.2207C233.828 49.6892 234.022 49.2907 234.022 49.0582C234.022 48.8257 233.866 48.726 233.44 48.726H233.324C232.975 48.726 232.858 48.6928 232.897 48.4603L232.975 47.796H233.246C233.246 48.0285 233.44 48.0285 233.711 48.0285Z" fill="#5A4638"/>
<path d="M238.287 48.0617C239.257 48.0617 239.606 48.3606 239.606 49.1578C239.606 49.5564 239.645 50.6193 239.761 51.6157L239.14 51.7153L239.218 49.7225C239.257 48.8921 238.791 48.7592 238.132 48.7592H236.969C236.62 48.7592 236.503 48.726 236.542 48.4935L236.62 47.8292H236.891C236.891 47.9953 237.008 48.0617 237.318 48.0617H238.287Z" fill="#5A4638"/>
<path d="M242.514 48.0617C243.212 48.0617 243.367 48.3274 243.367 48.9585C243.367 49.8553 243.406 50.586 243.523 51.6157L242.902 51.7153L242.98 49.4899C243.018 48.8257 242.786 48.7592 242.359 48.7592C241.933 48.7592 241.816 48.726 241.855 48.4935L241.933 47.8292L242.204 47.8624C242.204 47.9953 242.32 48.0617 242.514 48.0617Z" fill="#5A4638"/>
<path d="M246.896 48.095C247.594 48.095 247.749 48.3607 247.749 48.9253C247.749 49.6228 247.749 50.6525 248.137 51.6489L247.556 51.7486C247.439 51.3832 247.4 50.9846 247.4 50.6525C247.168 50.9846 246.974 51.3168 246.78 51.6821H246.16C245.966 51.6821 245.927 51.6821 245.849 51.7486L245.617 51.7154L245.772 51.1839C245.811 51.0511 245.849 51.0178 246.276 51.0178H246.702C246.819 50.9514 247.168 50.5528 247.362 50.1211C247.362 49.9218 247.362 49.7225 247.362 49.5564C247.362 48.8921 247.168 48.8257 246.664 48.8257C246.237 48.8257 246.121 48.7925 246.121 48.56L246.198 47.8957L246.47 47.9289C246.509 48.0285 246.625 48.095 246.896 48.095Z" fill="#5A4638"/>
<path d="M250.774 48.0949C251.278 48.0949 251.434 48.2942 251.434 48.6596C251.434 48.7592 251.395 48.8589 251.395 48.9917C251.705 48.6928 251.976 48.3939 252.209 48.0617H253.101C254.032 48.0617 254.187 48.9253 254.187 49.8221C254.187 50.4864 254.032 51.2171 253.954 51.6157H252.054C251.86 51.6157 251.821 51.6157 251.744 51.6821L251.511 51.6489L251.666 51.1175C251.705 50.9514 251.744 50.9514 252.287 50.9514H253.683C253.722 50.6857 253.76 50.3535 253.799 50.0546C253.799 49.3571 253.644 48.726 252.791 48.726C252.132 48.726 251.472 49.0582 251.278 49.7557C251.123 50.2539 251.007 50.885 250.929 51.5825L250.309 51.6821C250.58 50.9514 250.968 49.5232 250.968 49.0582C250.968 48.7924 250.852 48.726 250.658 48.726C250.231 48.726 250.115 48.6928 250.154 48.4603L250.231 47.796H250.503C250.425 48.0285 250.542 48.0949 250.774 48.0949Z" fill="#5A4638"/>
</svg>
