<svg width="293" height="231" viewBox="0 0 293 231" fill="none" xmlns="http://www.w3.org/2000/svg">
<mask id="mask0_51_3739" style="mask-type:luminance" maskUnits="userSpaceOnUse" x="0" y="0" width="293" height="211">
<path d="M293 0H0V210.473H293V0Z" fill="white"/>
</mask>
<g mask="url(#mask0_51_3739)">
<path d="M154.778 80.307C185.607 78.0234 194.678 80.2436 201.402 82.5272C208.126 84.8108 214.406 84.7473 213.264 97.4975C212.122 110.184 200.767 106.695 194.805 107.139C188.842 107.583 105.871 101.367 97.5609 100.733C89.2511 100.098 87.919 92.4863 88.2362 90.1392C88.5534 87.8556 91.281 79.7361 106.886 80.9413C122.427 82.1466 154.778 80.307 154.778 80.307Z" fill="white"/>
</g>
<mask id="mask1_51_3739" style="mask-type:luminance" maskUnits="userSpaceOnUse" x="0" y="0" width="293" height="211">
<path d="M293 0H0V210.473H293V0Z" fill="white"/>
</mask>
<g mask="url(#mask1_51_3739)">
<path d="M177.868 49.8588C198.167 49.4148 202.924 44.911 206.413 59.9448C209.902 74.9786 95.2139 73.583 87.2213 73.6465C62.9897 73.8368 67.6203 63.1799 79.2287 56.7097C86.5235 52.6499 170.002 50.0491 177.868 49.8588Z" fill="white"/>
</g>
<mask id="mask2_51_3739" style="mask-type:luminance" maskUnits="userSpaceOnUse" x="0" y="0" width="293" height="211">
<path d="M293 0H0V210.473H293V0Z" fill="white"/>
</mask>
<g mask="url(#mask2_51_3739)">
<path d="M86.7773 29.3063C85.6354 34.8885 90.7101 40.7244 110.755 39.9632C130.927 39.202 218.592 45.5454 221.574 35.5228C224.619 25.5638 213.264 17.8883 201.592 18.2689C189.857 18.6495 110.438 19.157 106.442 19.3473C102.382 19.601 88.934 18.7129 86.7773 29.3063Z" fill="white"/>
</g>
<mask id="mask3_51_3739" style="mask-type:luminance" maskUnits="userSpaceOnUse" x="0" y="0" width="293" height="211">
<path d="M293 0H0V210.473H293V0Z" fill="white"/>
</mask>
<g mask="url(#mask3_51_3739)">
<path d="M257.921 180.469H266.929V150.845C266.929 139.744 263.313 135.431 254.876 135.431H244.22V142.345H252.085C256.272 142.345 257.921 144.312 257.921 150.084V180.469ZM228.805 135.431H221.827L220.242 142.979H220.115L218.212 135.431H209.965L215.865 156.745L210.219 180.469H218.973L227.283 142.345C229.757 142.345 231.279 142.916 231.279 148.625V173.554H224.619V180.469H240.287V150.084C240.35 138.856 236.544 135.431 228.805 135.431ZM195.249 180.469H204.256V135.431H191.189V142.345H195.249V180.469ZM174.506 135.431H154.778V142.345H157.633V173.554H152.431V180.469H166.64V142.345H171.842C175.077 142.345 176.663 143.423 176.663 149.069V180.469H185.67V150.084C185.607 138.983 182.181 135.431 174.506 135.431ZM117.923 166.133C122.744 160.424 124.457 154.905 124.457 146.722V135.494H112.404V142.409H115.513V145.834C115.513 153.89 114.752 158.394 111.834 162.58L117.923 166.133ZM100.86 180.469H122.046C133.972 180.469 139.237 175.965 139.237 162.136V135.431H126.994V142.345H130.229V162.454C130.229 171.017 128.073 173.554 121.983 173.554H109.931V135.431H100.86V180.469ZM83.7325 180.469H92.74V135.431H79.6727V142.345H83.7325V180.469ZM73.2659 173.554V135.431H51.5082V142.345H64.2583V173.554H51.5082V180.469H76.8816V173.554H73.2659ZM27.0862 180.469H36.6012C43.1349 172.793 46.0529 164.23 46.0529 154.588V135.431H31.7803V130.039H23.5974V142.345H37.0453V154.588C37.0453 164.103 33.8736 171.334 27.0862 180.469Z" fill="white"/>
</g>
<mask id="mask4_51_3739" style="mask-type:luminance" maskUnits="userSpaceOnUse" x="0" y="0" width="293" height="211">
<path d="M293 0H0V210.473H293V0Z" fill="white"/>
</mask>
<g mask="url(#mask4_51_3739)">
<path d="M279.742 196.961L275.683 205.081L271.623 196.961H269.149V209.712H270.798V198.928L274.921 206.921H276.317L280.44 198.928V209.712H282.089V196.961H279.742ZM258.365 208.316V203.622H264.201V202.29H258.365V198.357H264.899V196.961H256.589V209.712H265.026V208.316H258.365ZM244.664 209.712H252.72V208.316H246.376V196.961H244.6V209.712H244.664ZM233.055 205.208L235.402 198.801L237.749 205.208H233.055ZM239.335 209.712H241.238L236.227 196.961H234.514L229.503 209.712H231.406L232.611 206.477H238.13L239.335 209.712ZM222.398 209.838C225.38 209.838 226.966 208.57 226.966 206.667C226.966 204.764 226.077 203.749 222.779 202.417C220.686 201.529 219.988 200.894 219.988 199.879C219.988 198.864 220.812 198.103 222.525 198.103C224.682 198.103 225.189 199.309 225.126 200.831H226.712C226.839 198.611 225.951 196.771 222.462 196.771C219.607 196.771 218.212 198.103 218.212 199.753C218.212 201.402 219.1 202.29 222.271 203.685C224.555 204.637 225.189 205.335 225.189 206.603C225.189 207.745 224.238 208.506 222.462 208.506C220.622 208.506 219.48 207.555 219.798 205.144H218.148C217.768 208.697 219.671 209.838 222.398 209.838ZM208.824 209.838C212.249 209.838 213.835 208.443 213.835 205.144V196.961H212.059V205.144C212.059 207.491 211.107 208.506 208.824 208.506C206.54 208.506 205.588 207.555 205.588 205.144V196.961H203.812V205.144C203.812 208.443 205.398 209.838 208.824 209.838ZM192.838 198.294H195.058C196.898 198.294 197.786 199.055 197.786 200.704C197.786 202.353 196.961 203.115 195.058 203.115H192.838V198.294ZM199.562 200.704C199.562 198.167 198.294 196.961 195.502 196.961H191.062V209.712H192.838V204.383H195.122L197.723 209.712H199.499L196.835 204.256C198.738 203.939 199.562 202.734 199.562 200.704ZM180.215 208.316V203.622H186.051V202.29H180.215V198.357H186.749V196.961H178.439V209.712H186.876V208.316H180.215ZM168.987 209.712H170.573C172.857 209.712 173.618 208.95 173.618 206.667V196.961H171.842V206.477C171.842 207.872 171.398 208.316 170.256 208.316H168.987V209.712ZM153.763 209.712H161.819V208.316H155.476V196.961H153.7V209.712H153.763ZM142.218 205.208L144.565 198.801L146.912 205.208H142.218ZM148.498 209.712H150.401L145.39 196.961H143.677L138.666 209.712H140.569L141.774 206.477H147.293L148.498 209.712ZM130.61 209.712H132.449L137.27 196.961H135.367L131.498 207.618L127.628 196.961H125.725L130.61 209.712ZM117.796 208.506C115.576 208.506 114.434 207.365 114.434 204.7V201.909C114.434 199.309 115.576 198.167 117.796 198.167C120.016 198.167 121.158 199.309 121.158 201.909V204.7C121.158 207.365 120.08 208.506 117.796 208.506ZM117.796 209.838C121.222 209.838 122.871 208.253 122.871 204.574V202.1C122.871 198.42 121.222 196.835 117.796 196.835C114.371 196.835 112.658 198.42 112.658 202.1V204.574C112.722 208.253 114.371 209.838 117.796 209.838ZM106.442 196.961V202.417H99.908V196.961H98.1318V209.712H99.908V203.812H106.442V209.712H108.218V196.961H106.442ZM89.3146 209.838C92.2959 209.838 93.8818 208.57 93.8818 206.667C93.8818 204.764 92.9937 203.749 89.6952 202.417C87.6018 201.529 86.9041 200.894 86.9041 199.879C86.9041 198.864 87.7287 198.103 89.4414 198.103C91.5982 198.103 92.1056 199.309 92.0422 200.831H93.6281C93.7549 198.611 92.8668 196.771 89.378 196.771C86.5235 196.771 85.1279 198.103 85.1279 199.753C85.1279 201.402 86.016 202.29 89.1877 203.685C91.4713 204.637 92.1056 205.335 92.1056 206.603C92.1056 207.745 91.1541 208.506 89.378 208.506C87.5384 208.506 86.3966 207.555 86.7138 205.144H85.0645C84.7473 208.697 86.6503 209.838 89.3146 209.838ZM77.2622 196.961H68.0009V198.357H71.8069V209.712H73.583V198.357H77.3256V196.961H77.2622ZM59.8179 208.506C57.5977 208.506 56.4559 207.365 56.4559 204.7V201.909C56.4559 199.309 57.5977 198.167 59.8179 198.167C62.0381 198.167 63.1799 199.309 63.1799 201.909V204.7C63.1799 207.365 62.0381 208.506 59.8179 208.506ZM59.8179 209.838C63.2433 209.838 64.8926 208.253 64.8926 204.574V202.1C64.8926 198.42 63.2433 196.835 59.8179 196.835C56.3925 196.835 54.6798 198.42 54.6798 202.1V204.574C54.7432 208.253 56.3925 209.838 59.8179 209.838ZM47.7021 196.961L43.6423 205.081L39.5826 196.961H37.1087V209.712H38.7579V198.928L42.8811 206.921H44.4035L48.5267 198.928V209.712H50.176V196.961H47.7021ZM25.5637 205.208L27.9108 198.801L30.2578 205.208H25.5637ZM31.8437 209.712H33.7467L28.7354 196.961H27.0227L22.0115 209.712H23.9145L25.1197 206.477H30.6384L31.8437 209.712ZM12.5599 198.294H14.78C16.6196 198.294 17.5077 199.055 17.5077 200.704C17.5077 202.353 16.683 203.115 14.78 203.115H12.5599V198.294ZM19.2204 200.704C19.2204 198.167 17.9517 196.961 15.1606 196.961H10.7203V209.712H12.4964V204.383H14.78L17.3808 209.712H19.157L16.4927 204.256C18.3957 203.939 19.2204 202.734 19.2204 200.704Z" fill="white"/>
</g>
<path d="M49.7954 221.066C51.3813 221.066 51.6984 221.701 51.6984 222.969C51.6984 224.492 51.7619 226.078 51.9522 227.854L50.9372 228.044L51.0641 223.984C51.1275 222.716 50.62 222.462 49.5417 222.462H47.5752C47.0678 223.667 47.0678 224.111 47.0678 224.301C47.0678 224.492 47.0678 224.936 47.829 226.712L47.6387 227.917H46.1797C45.8625 227.917 45.7991 227.917 45.6722 228.044L45.2916 227.981L45.5454 226.966C45.6088 226.648 45.6722 226.648 46.5603 226.648H46.8775C46.3066 225.189 46.2431 224.682 46.2431 224.555C46.2431 224.428 46.3066 224.111 47.0043 222.462H46.6237C46.0528 222.462 45.8625 222.398 45.8625 221.954L45.9894 220.686H46.4334C46.4334 221.003 46.6237 221.13 47.1312 221.13H49.7954V221.066Z" fill="white"/>
<path d="M56.456 221.066C57.5978 221.066 57.8515 221.51 57.8515 222.779C57.8515 224.492 57.9149 225.887 58.1052 227.854L57.0903 228.044L57.2172 223.794C57.2172 222.525 56.9 222.398 56.2022 222.398C55.5045 222.398 55.3142 222.335 55.3776 221.891L55.5045 220.622H55.9485C55.8851 221.003 56.0754 221.066 56.456 221.066Z" fill="white"/>
<path d="M62.4187 220.686C62.4187 221.003 62.609 221.13 63.1165 221.13H67.0494C67.6203 221.13 67.8106 221.13 67.7472 221.637L67.6203 222.906L67.874 227.854L66.9225 228.044L67.0494 223.413C67.0494 222.589 66.9225 222.398 66.1613 222.398H63.1799V227.854L62.165 228.044L62.5456 222.398C62.0381 222.398 61.7844 222.335 61.8478 221.891L61.9747 220.622L62.4187 220.686Z" fill="white"/>
<path d="M72.6949 220.559C72.6949 220.876 72.8852 220.939 73.3927 221.066C74.1539 221.193 74.9151 221.32 76.1204 221.447C76.945 221.574 77.2622 222.969 77.2622 224.555C77.2622 225.824 77.0084 227.219 76.7547 227.917H72.5046C72.1875 227.917 72.124 227.917 71.9972 228.044L71.6166 227.981L71.8703 226.966C71.9337 226.648 71.9972 226.648 72.8853 226.648H76.3107C76.501 226.268 76.6913 225.507 76.6913 224.809C76.6913 223.794 76.3741 222.842 75.5495 222.716C74.7883 222.589 74.0905 222.525 73.3927 222.398C73.2658 222.779 73.2659 223.033 73.2659 223.223C73.2659 223.667 73.4562 223.73 74.4077 223.857L74.2174 225.126C72.9487 224.999 72.4412 224.872 72.4412 224.174C72.4412 223.857 72.5681 223.223 72.8853 222.398C72.4412 222.335 72.2509 222.208 72.3143 221.764L72.4412 220.559H72.6949Z" fill="white"/>
<path d="M82.7809 228.044C81.7025 225.824 81.5122 224.619 81.5122 224.238C81.5122 223.921 81.766 223.033 82.0197 222.335H81.5122C80.9413 222.335 80.751 222.272 80.751 221.827L80.8779 220.559H81.3219C81.3219 220.876 81.5122 221.003 82.0197 221.003H82.9078L82.7175 222.271C82.3369 222.525 82.21 223.223 82.21 223.921C82.21 224.492 82.654 225.57 83.0981 226.395L84.3668 222.335C83.9227 222.335 83.7324 222.208 83.7324 221.764L83.8593 220.559H84.3033C84.3033 220.876 84.4936 221.003 85.0011 221.003H85.8892L85.6989 222.271C84.8742 222.335 84.8108 222.525 83.6056 226.585C84.5571 226.395 85.9526 226.078 86.3966 225.824C87.3481 225.253 87.9825 223.413 87.9825 222.906C87.9825 222.525 87.8556 222.398 87.475 222.398C86.9041 222.398 86.7138 222.335 86.7138 221.891L86.8407 220.622H87.2847C87.2847 220.939 87.475 221.066 87.9825 221.066H88.1093C88.6802 221.066 88.8705 221.13 88.8705 221.574C88.8705 223.16 87.4116 226.712 86.4601 227.092C85.572 227.536 84.0496 227.917 82.7809 228.044Z" fill="white"/>
<path d="M93.3109 221.066C94.1356 221.066 94.3893 221.447 94.3893 222.145C94.3893 222.335 94.3893 222.525 94.3259 222.779C94.8333 222.208 95.2774 221.637 95.658 221.003H97.1169C98.6394 221.003 98.9565 222.652 98.9565 224.365C98.9565 225.633 98.7662 227.029 98.5759 227.79H95.4677C95.1505 227.79 95.0871 227.79 94.9602 227.917L94.5796 227.854L94.8333 226.839C94.8968 226.522 94.9602 226.522 95.8483 226.522H98.1319C98.1953 226.014 98.2587 225.38 98.2587 224.809C98.2587 223.477 98.005 222.271 96.6095 222.271C95.5311 222.271 94.4527 222.969 94.1356 224.238C93.8818 225.189 93.6915 226.395 93.5647 227.727L92.5497 227.917C92.9303 226.522 93.6281 223.73 93.6281 222.906C93.6281 222.398 93.4378 222.271 93.1206 222.271C92.4229 222.271 92.2326 222.208 92.296 221.764L92.4229 220.495H92.8669C92.74 221.003 92.9303 221.066 93.3109 221.066Z" fill="white"/>
<path d="M102.065 218.148L102.192 216.88H102.636C102.636 217.197 102.826 217.324 103.333 217.324H103.841L103.651 218.592C103.27 218.592 103.207 218.846 103.143 219.163C103.08 219.607 103.08 220.242 103.08 220.622C103.08 220.939 103.08 221.066 103.524 221.066H105.744C106.886 221.066 107.393 221.574 107.393 222.652C107.393 223.857 107.076 225.76 106.569 226.331C106.188 226.712 105.49 227.029 104.602 227.6C104.285 227.79 104.222 227.917 104.158 228.044L103.777 227.981L104.031 226.839C104.031 226.712 104.095 226.585 104.285 226.458C105.427 225.824 105.871 225.633 106.378 225.253C106.569 224.936 106.759 224.301 106.759 223.54C106.759 222.716 106.251 222.462 105.554 222.462H103.143C102.572 222.462 102.382 222.335 102.445 221.891L102.699 218.719C102.255 218.656 102.001 218.592 102.065 218.148Z" fill="white"/>
<path d="M117.606 227.917C117.416 227.156 117.289 226.395 117.289 225.633C117.289 224.555 117.479 223.54 117.796 222.398C117.225 222.398 117.035 222.335 117.099 221.891L117.225 220.622H117.669C117.669 220.939 117.86 221.066 118.367 221.066H120.778C122.808 221.066 122.871 222.018 122.871 223.604C122.871 224.365 122.871 226.204 122.427 227.854H117.606V227.917ZM118.113 225.189C118.113 226.014 118.177 226.648 118.748 226.648H121.602C122.173 226.648 122.3 226.204 122.3 224.872C122.3 223.033 122.3 222.462 120.778 222.462H118.494C118.367 222.716 118.113 224.111 118.113 225.189Z" fill="white"/>
<path d="M126.17 218.148L126.296 216.88H126.74C126.74 217.197 126.931 217.324 127.438 217.324H127.946L127.755 218.592C127.375 218.592 127.311 218.846 127.248 219.163C127.185 219.607 127.185 220.242 127.185 220.622C127.185 220.939 127.184 221.066 127.629 221.066H129.849C130.991 221.066 131.498 221.574 131.498 222.652C131.498 223.857 131.181 225.76 130.673 226.331C130.293 226.712 129.595 227.029 128.707 227.6C128.39 227.79 128.326 227.917 128.263 228.044L127.882 227.981L128.136 226.839C128.136 226.712 128.199 226.585 128.39 226.458C129.532 225.824 129.976 225.633 130.483 225.253C130.673 224.936 130.864 224.301 130.864 223.54C130.864 222.716 130.356 222.462 129.658 222.462H127.248C126.677 222.462 126.487 222.335 126.55 221.891L126.804 218.719C126.36 218.656 126.106 218.592 126.17 218.148Z" fill="white"/>
<path d="M137.08 228.044C136.002 225.824 135.811 224.619 135.811 224.238C135.811 223.921 136.065 223.033 136.319 222.335H135.811C135.241 222.335 135.05 222.272 135.05 221.827L135.177 220.559H135.621C135.621 220.876 135.811 221.003 136.319 221.003H137.207L137.017 222.271C136.636 222.525 136.509 223.223 136.509 223.921C136.509 224.492 136.953 225.57 137.397 226.395L138.666 222.335C138.222 222.335 138.032 222.208 138.032 221.764L138.158 220.559H138.603C138.603 220.876 138.793 221.003 139.3 221.003H140.188L139.998 222.271C139.173 222.335 139.11 222.525 137.905 226.585C138.856 226.395 140.252 226.078 140.696 225.824C141.647 225.253 142.282 223.413 142.282 222.906C142.282 222.525 142.155 222.398 141.774 222.398C141.203 222.398 141.013 222.335 141.013 221.891L141.14 220.622H141.584C141.584 220.939 141.774 221.066 142.282 221.066H142.409C142.979 221.066 143.17 221.13 143.17 221.574C143.17 223.16 141.711 226.712 140.759 227.092C139.808 227.536 138.285 227.917 137.08 228.044Z" fill="white"/>
<path d="M147.42 221.066C148.562 221.066 148.815 221.51 148.815 222.779C148.815 224.492 148.879 225.887 149.069 227.854L148.054 228.044L148.181 223.794C148.181 222.525 147.864 222.398 147.166 222.398C146.468 222.398 146.278 222.335 146.341 221.891L146.468 220.622H146.912C146.849 221.003 147.039 221.066 147.42 221.066Z" fill="white"/>
<path d="M153.636 221.066C154.461 221.066 154.715 221.447 154.715 222.145C154.715 222.335 154.715 222.525 154.651 222.779C155.159 222.208 155.603 221.637 155.983 221.003H157.442C158.965 221.003 159.282 222.652 159.282 224.365C159.282 225.633 159.092 227.029 158.901 227.79H155.793C155.476 227.79 155.412 227.79 155.286 227.917L154.905 227.854L155.159 226.839C155.222 226.522 155.286 226.522 156.174 226.522H158.457C158.521 226.014 158.584 225.38 158.584 224.809C158.584 223.477 158.33 222.271 156.935 222.271C155.856 222.271 154.778 222.969 154.461 224.238C154.207 225.189 154.017 226.395 153.89 227.727L152.875 227.917C153.256 226.522 153.953 223.73 153.953 222.906C153.953 222.398 153.763 222.271 153.446 222.271C152.748 222.271 152.558 222.208 152.621 221.764L152.748 220.495H153.192C153.065 221.003 153.256 221.066 153.636 221.066Z" fill="white"/>
<path d="M169.939 225.824C170.51 225.824 171.398 226.458 171.398 227.536C171.398 228.742 170.319 229.439 169.304 229.693L169.114 229.249C169.875 228.932 170.319 228.551 170.319 227.917C170.319 227.346 169.875 226.966 169.304 226.839C169.241 226.839 169.114 226.712 169.114 226.458C169.178 226.078 169.558 225.824 169.939 225.824Z" fill="white"/>
<path d="M178.439 221.066C180.025 221.066 180.532 221.637 180.532 222.906C180.532 224.301 180.342 225.57 179.961 226.141C179.708 226.522 179.454 226.648 177.931 227.6C177.614 227.79 177.551 227.854 177.424 227.981L177.043 227.917L177.297 226.839C177.297 226.712 177.36 226.585 177.551 226.458C178.819 225.697 179.263 225.38 179.581 225.126C179.834 224.745 179.898 224.238 179.898 223.667C179.898 222.589 179.327 222.335 178.122 222.335H175.775C175.204 222.335 175.013 222.272 175.013 221.827L175.14 220.559H175.584C175.584 220.876 175.775 221.003 176.282 221.003H178.439V221.066ZM176.219 224.174V230.137L175.204 230.328C175.331 228.361 175.394 226.395 175.457 224.428L176.028 224.174H176.219Z" fill="white"/>
<path d="M185.226 221.066C186.241 221.066 186.558 221.447 186.558 222.208C186.558 222.906 186.241 223.857 185.988 225.063L184.973 225.253C185.417 224.238 185.734 223.477 185.734 223.033C185.734 222.589 185.48 222.398 184.782 222.398H184.592C184.021 222.398 183.831 222.335 183.831 221.891L183.958 220.622H184.402C184.465 221.066 184.782 221.066 185.226 221.066Z" fill="white"/>
<path d="M192.711 223.286L193.029 221.447C193.346 221.066 193.853 220.813 194.361 220.813C195.756 220.813 196.264 222.145 196.264 223.477C196.264 224.809 195.693 226.712 194.868 227.156C194.044 227.6 192.711 227.917 191.697 228.107C190.618 225.887 190.428 224.682 190.428 224.301C190.428 223.984 190.808 223.096 191.126 222.398H190.618C190.047 222.398 189.857 222.335 189.857 221.891L189.984 220.622H190.428C190.428 220.939 190.618 221.066 191.126 221.066H192.141L191.95 222.335C191.379 222.589 191.189 223.477 191.189 224.048C191.189 224.619 191.633 225.76 192.141 226.712C192.838 226.585 194.424 226.141 194.805 225.887C195.249 225.443 195.503 224.619 195.503 223.921C195.503 222.589 194.741 222.081 194.044 222.081C193.346 222.081 193.219 222.462 192.965 223.286H192.711Z" fill="white"/>
<path d="M200.704 221.066C201.846 221.066 202.1 221.51 202.1 222.779C202.1 224.492 202.163 225.887 202.353 227.854L201.338 228.044L201.465 223.794C201.465 222.525 201.148 222.398 200.45 222.398C199.753 222.398 199.562 222.335 199.626 221.891L199.753 220.622H200.197C200.197 221.003 200.387 221.066 200.704 221.066Z" fill="white"/>
<path d="M206.857 220.686C206.857 221.003 207.047 221.13 207.555 221.13H209.204C210.727 221.13 211.107 221.764 211.107 223.033V225.38C211.107 226.585 211.234 226.648 211.932 226.648L211.742 227.854H206.794C206.477 227.854 206.413 227.854 206.286 227.981L205.906 227.917L206.159 226.902C206.223 226.585 206.286 226.585 207.174 226.585H210.6C210.409 225.507 210.409 224.492 210.346 223.54C210.346 222.589 209.965 222.335 209.014 222.335H207.047C206.477 222.335 206.286 222.272 206.286 221.827L206.413 220.559L206.857 220.686Z" fill="white"/>
<path d="M222.208 221.066C223.223 221.066 223.54 221.447 223.54 222.208C223.54 222.906 223.223 223.857 222.969 225.063L221.954 225.253C222.398 224.238 222.716 223.477 222.716 223.033C222.716 222.589 222.462 222.398 221.764 222.398H221.574C221.003 222.398 220.813 222.335 220.813 221.891L220.939 220.622H221.383C221.447 221.066 221.764 221.066 222.208 221.066Z" fill="white"/>
<path d="M229.757 221.066C231.343 221.066 231.913 221.637 231.913 223.16C231.913 223.921 231.977 225.951 232.167 227.854L231.152 228.044L231.279 224.238C231.343 222.652 230.581 222.398 229.503 222.398H227.6C227.029 222.398 226.839 222.335 226.839 221.891L226.966 220.622H227.41C227.41 220.939 227.6 221.066 228.107 221.066H229.757Z" fill="white"/>
<path d="M236.671 221.066C237.813 221.066 238.066 221.51 238.066 222.779C238.066 224.492 238.13 225.887 238.32 227.854L237.305 228.044L237.432 223.794C237.432 222.525 237.115 222.398 236.417 222.398C235.719 222.398 235.529 222.335 235.593 221.891L235.719 220.622H236.163C236.1 221.003 236.29 221.066 236.671 221.066Z" fill="white"/>
<path d="M243.839 221.066C244.981 221.066 245.234 221.51 245.234 222.652C245.234 223.984 245.234 225.951 245.932 227.854L244.981 228.044C244.79 227.346 244.727 226.585 244.664 225.951C244.283 226.585 243.966 227.219 243.649 227.917H242.634C242.317 227.917 242.253 227.917 242.126 228.044L241.746 227.981L241.999 226.966C242.063 226.712 242.126 226.648 242.824 226.648H243.522C243.712 226.522 244.283 225.76 244.6 224.936C244.6 224.555 244.6 224.174 244.6 223.857C244.6 222.589 244.283 222.462 243.458 222.462C242.761 222.462 242.57 222.398 242.57 221.954L242.697 220.686H243.141C243.205 221.003 243.331 221.066 243.839 221.066Z" fill="white"/>
<path d="M250.119 221.066C250.944 221.066 251.197 221.447 251.197 222.145C251.197 222.335 251.197 222.525 251.134 222.779C251.641 222.208 252.085 221.637 252.466 221.003H253.925C255.447 221.003 255.765 222.652 255.765 224.365C255.765 225.633 255.574 227.029 255.384 227.79H252.276C251.958 227.79 251.895 227.79 251.768 227.917L251.388 227.854L251.641 226.839C251.705 226.522 251.768 226.522 252.656 226.522H254.94C255.003 226.014 255.067 225.38 255.067 224.809C255.067 223.477 254.813 222.271 253.417 222.271C252.339 222.271 251.261 222.969 250.944 224.238C250.69 225.189 250.5 226.395 250.373 227.727L249.358 227.917C249.738 226.522 250.436 223.73 250.436 222.906C250.436 222.398 250.246 222.271 249.929 222.271C249.231 222.271 249.041 222.208 249.104 221.764L249.231 220.495H249.675C249.548 221.003 249.802 221.066 250.119 221.066Z" fill="white"/>
</svg>
