<svg width="146" height="67" viewBox="0 0 146 67" fill="none" xmlns="http://www.w3.org/2000/svg">
<path d="M13.9345 21.4367C15.1955 21.4997 16.5195 21.6889 17.6544 21.2475L17.7175 21.1845L17.7805 21.1214C18.7263 20.1757 19.9242 19.6713 21.1222 19.1669C21.6896 18.9777 22.2571 18.6625 22.8876 18.5994L26.1031 18.4733C26.9858 18.5994 28.0577 18.8516 28.8773 18.6625C28.8773 18.6625 28.8143 18.6625 28.6882 18.7886L28.7512 18.7255L28.8143 18.6625C29.4448 17.9689 30.4536 18.2211 31.2102 18.4103C31.5254 18.4733 31.7776 18.5364 32.0298 18.4733C33.2908 18.1581 34.804 18.2211 36.065 18.3472L35.5606 18.4733L37.263 17.5906L37.4521 17.5276H37.5152C38.2087 17.4645 38.7762 17.4015 39.4697 17.6537C39.9111 17.8428 40.4785 17.6537 40.9199 17.5276C41.4243 18.2842 42.1178 19.2299 42.7483 19.6713L42.6853 19.7343C42.9375 19.4821 43.2527 19.4191 43.5049 19.4191C44.0093 19.4191 44.4507 19.5452 44.892 19.6713H44.5768C46.09 18.9147 47.7293 19.2299 49.1794 19.8604L50.5665 20.4279C51.3231 20.7431 52.0167 21.1214 52.7733 21.1845C53.9082 21.2475 55.0431 21.5628 56.1149 21.7519C56.4302 21.815 57.1237 22.0041 57.502 22.0041C60.3393 22.6346 64.6267 24.1478 67.4009 24.9675C69.2294 25.5349 71.0578 26.1024 72.9493 26.6068C74.8408 27.1112 76.8584 27.4264 78.6238 28.183C82.2807 29.381 86.0637 30.5159 89.7837 31.7139L89.7206 31.966C85.3071 31.5247 80.9567 30.8942 76.6693 29.6962C75.2822 29.3179 73.832 29.2549 72.4449 28.9396C68.5358 28.12 64.8158 26.7959 61.1589 25.3458C60.2762 24.9675 58.0064 24.0848 57.1868 23.7695L57.0607 23.7065C56.9346 23.7065 56.6193 23.5804 56.4932 23.5173C55.3583 23.139 54.1604 22.6977 53.0885 22.4455L52.9624 22.3824H52.8994C52.458 22.3194 51.9536 22.1302 51.5753 21.9411C49.6208 20.9953 47.351 19.1038 45.0812 20.1757L44.7659 20.4279C44.3876 20.3018 43.9463 20.1126 43.568 20.1757C43.2527 20.1757 43.2527 20.4279 42.9375 20.4909C42.6853 20.554 42.4331 20.4279 42.1809 20.3018C41.3612 19.7974 40.8568 19.1669 40.2894 18.4733L40.8568 18.6625C40.2894 18.8516 39.5958 19.0408 39.0284 18.7886C38.7131 18.7255 38.1457 18.8516 37.7674 18.9147L38.0196 18.7886C37.8935 18.8516 36.3172 19.9865 36.2542 20.0496C35.1823 20.0496 34.0474 20.0496 33.0386 20.3018C32.8495 20.3648 32.8495 20.3648 32.4712 20.4909C31.5885 20.6801 30.8949 20.4909 30.1383 20.3018C30.0122 20.2387 29.8861 20.3018 30.0753 20.2387C30.1383 20.2387 30.2014 20.1757 30.2014 20.1757C30.2644 20.1757 30.2644 20.1126 30.2644 20.1126C29.76 20.6801 29.1295 20.7431 28.6251 20.7431C27.6163 20.7431 26.7967 20.617 25.8509 20.4279H26.0401L22.8245 20.3018H22.7615C22.0679 20.4279 20.87 20.8062 20.0503 21.0584C19.4829 21.2475 18.9154 21.4997 18.4741 21.815C18.0958 22.2563 17.4653 22.3194 17.0239 22.2563C15.889 22.1933 14.8802 21.9411 13.8083 21.5628L13.9345 21.4367Z" fill="#A48F65"/>
<path d="M49.9987 20.1762C52.0794 19.7349 54.16 19.2935 56.3037 18.9152C60.0867 18.7261 63.9328 18.6 67.7158 18.5369L67.3375 18.6C68.9768 17.8434 70.49 17.0237 72.3184 16.6454C72.8859 16.5824 73.5164 16.6454 73.8947 17.1498C73.8947 17.0868 73.7686 17.0237 73.7686 17.0237C73.7055 16.9607 73.7055 16.9607 73.6425 16.9607C73.8947 16.9607 74.336 16.9607 74.7143 16.8976C75.1557 16.8346 76.1645 16.6454 76.6058 16.6454C76.9841 16.5824 77.6777 16.5824 78.119 16.8976C78.2451 16.9607 78.3712 17.0868 78.3082 17.0237C78.2451 16.9607 78.119 16.8976 78.056 16.8976C77.9299 16.8976 78.056 16.8976 78.2451 16.8346C78.6234 16.7715 79.1909 16.5824 79.8844 16.6454C80.0736 16.6454 80.1997 16.7085 80.3258 16.7085C82.5956 16.5193 84.8023 15.8888 87.0091 15.4475H87.1352L91.1704 15.5736L90.7921 15.6366L92.8097 14.6909L92.9988 14.6278H93.1249L94.7642 14.6909H94.5751L97.2232 13.9973L96.9079 14.817L95.6469 12.9255L95.9622 13.1146C94.9534 12.9885 88.9006 12.1689 88.0809 12.0428C87.9548 12.0428 87.7657 11.9797 87.6396 11.9797C87.4504 11.9797 87.1352 11.9797 86.946 11.9797C85.4328 12.1058 83.9827 12.4841 82.4695 12.2319C82.2803 12.1689 82.1542 12.1689 81.9651 12.0428C81.7129 11.8536 81.4607 11.8536 81.1454 11.7275C77.2994 11.1601 73.3272 11.2231 69.4812 11.1601L69.3551 11.097L66.5809 10.1513C66.5178 10.1513 66.4548 10.0882 66.3917 10.0252C65.0677 9.14246 63.8067 8.19671 62.3565 7.69231C61.2216 7.56621 60.0867 8.07061 58.8257 7.94451C58.5105 7.94451 58.1952 7.81841 57.88 7.69231C57.7539 7.62926 57.6278 7.56621 57.5647 7.44011C56.4298 7.06181 54.9166 6.87266 53.6556 6.74656C47.0984 6.55741 40.4781 6.43131 33.8579 6.11606L31.7142 5.98996H31.2098H30.9576C30.8945 5.98996 30.7684 5.98996 30.7054 5.98996C26.2919 6.36826 21.5001 6.68351 17.0235 6.80961C14.5015 6.80961 11.0338 6.62046 8.51176 6.55741C5.67451 6.43131 2.83725 6.30521 0 6.11606V5.86386C5.1701 5.5486 10.7185 5.2964 15.8886 5.1703C20.3021 4.85505 25.157 4.2876 29.5705 3.9093L30.1379 3.84625C30.3901 3.84625 30.7684 3.7832 31.0206 3.7832C31.1467 3.7832 31.6511 3.7832 31.8403 3.7832L33.984 3.84625C40.4781 4.0354 47.0353 4.35065 53.5926 4.6659C54.9166 4.792 56.1146 4.98115 57.4386 5.35945C57.943 5.48555 58.3213 5.61166 58.7627 5.92691L58.9518 6.11606L58.8888 6.05301C60.1498 6.24216 61.663 5.61165 63.0501 6.05301C63.3023 6.17911 63.5545 6.24216 63.8067 6.36826C65.1307 7.12486 66.2656 8.00756 67.4005 8.89026L67.2114 8.76416L69.9225 9.89906C72.5706 10.0252 77.8668 10.4665 81.3976 11.097C81.7759 11.1601 82.1542 11.2862 82.4695 11.5384C82.5325 11.5384 82.5325 11.6014 82.5956 11.6014L82.7217 11.6645C84.2349 11.9797 85.8742 11.5384 87.3874 11.4123C87.5765 11.4123 87.8287 11.4123 88.0809 11.4753L88.2701 11.5384L88.6484 11.6014C91.1704 11.9167 93.7554 12.1689 96.2774 12.358L96.4035 12.5472L97.7906 14.3126L98.232 14.88C97.8537 15.0061 95.3947 15.8888 94.9534 16.078H94.8903H94.7642L93.1249 16.141L93.4402 16.078L91.5487 17.1498L91.4226 17.2129H91.1704L87.1352 17.339H87.3874C85.3067 17.9064 83.2261 18.4739 81.0824 18.7891C80.641 18.8522 80.0105 18.8522 79.5692 18.7261C79.0017 18.663 78.4973 19.0413 77.6777 18.9152C77.4255 18.8522 77.1102 18.7261 76.858 18.5369C76.7319 18.4108 76.858 18.5369 76.9211 18.6C76.9841 18.663 76.9841 18.663 77.0472 18.663C77.1102 18.663 77.1102 18.663 77.1102 18.663C76.858 18.6 76.4167 18.7261 76.1645 18.7261C75.2187 18.7891 74.3991 19.0413 73.3903 18.9783C73.012 18.9152 72.5076 18.7891 72.2554 18.4108L72.1923 18.3478C72.1923 18.4108 72.2554 18.4108 72.3184 18.4739C72.5706 18.663 72.6967 18.6 72.6337 18.663C70.9944 18.8522 69.3551 19.6718 67.8419 20.3654H67.6527C63.9958 20.3023 59.7715 20.1762 56.3668 19.9871C54.2231 20.1762 52.1424 20.3654 49.9987 20.5545V20.1762Z" fill="#A48F65"/>
<path d="M51.7012 4.85486C57.3126 2.96335 63.1132 1.45015 68.9138 0.0630501C69.6704 0 70.4901 0.0630501 71.3097 0C72.0663 0 72.8229 0 73.6426 0.0630501C76.3538 0.567451 79.3801 1.261 82.0913 1.7654C82.911 1.95455 84.235 2.1437 84.8655 2.2698C88.3963 2.3959 91.9271 2.33285 95.3949 2.20675C98.9257 2.08065 102.393 1.82845 105.924 1.70235C106.87 1.5132 109.581 1.1349 111.157 1.5132C112.229 1.82845 112.481 1.8915 113.49 2.0176C115.571 2.20675 117.715 2.45895 119.795 3.0264C124.776 4.35045 130.451 4.60265 135.621 4.79181C138.962 4.98096 142.241 5.17011 145.583 5.48536V5.73756C140.602 6.24196 135.621 6.49416 130.577 6.62026C126.352 6.68331 122.128 6.30501 118.03 5.17011C115.697 4.53961 112.923 4.5396 110.653 3.71995C109.203 3.4047 107.5 3.59385 105.987 3.71995C98.9257 3.46775 91.8641 2.83725 84.8025 3.1525C82.0283 2.83725 78.9388 2.7742 76.1646 2.3959C75.2188 2.2698 74.2731 2.1437 73.3273 2.0176H73.5165C72.8229 2.0176 72.0663 2.0176 71.3728 2.08065C70.6792 2.08065 69.9226 2.08065 69.2291 2.08065H69.4813C66.581 2.71115 63.6807 3.2786 60.7173 3.783C57.754 4.2874 54.8537 4.72876 51.8903 5.10706L51.7012 4.85486Z" fill="#A48F65"/>
<path d="M33.9838 66.644H33.4164V60.1498H30.5791V59.7085H33.9838V66.644Z" fill="#000C22"/>
<path d="M37.0104 65.2569H36.4429L38.4605 60.1498H35.245V58.7627H35.7494V59.7084H39.1541L37.0104 65.2569Z" fill="#000C22"/>
<path d="M41.0461 59.7085H40.4786V62.798H41.0461V59.7085Z" fill="#000C22"/>
<path d="M46.2156 59.7085V64.8156H47.0352V65.2569H42.3695V64.8156H45.6481V60.1498H42.3695V59.7085H46.2156Z" fill="#000C22"/>
<path d="M53.4661 62.3566C53.4661 63.1132 53.34 63.7437 53.1509 64.122C52.9617 64.5634 52.6465 64.8156 52.2682 65.0047C51.8899 65.1939 51.3855 65.2569 50.755 65.2569H48.4221L47.9177 59.7085H48.4852L48.9896 64.8156H50.755C51.2594 64.8156 51.7007 64.7525 52.016 64.6264C52.3312 64.5003 52.5834 64.2481 52.7095 63.8698C52.8356 63.4915 52.9617 62.9871 52.9617 62.2935V59.7085H53.5292V62.3566H53.4661ZM51.0702 63.4915H50.5028V59.7085H51.0702V63.4915Z" fill="#000C22"/>
<path d="M58.6999 59.7085V64.8156H59.4565V65.2569H54.8539V64.8156H58.1325V60.1498H54.8539V59.7085H58.6999Z" fill="#000C22"/>
<path d="M67.7789 65.2569H67.2114L64.7525 61.8522C64.185 61.9152 63.8698 62.2936 63.8698 62.9871V65.2569H63.3023V62.9871C63.3023 62.5458 63.4284 62.2305 63.6176 61.9783C63.8067 61.7261 64.122 61.5369 64.5003 61.4739L63.2393 59.7085H63.8067L66.1396 62.924C66.4548 62.924 66.644 62.7979 66.8331 62.6088C66.9592 62.4196 67.0853 62.1675 67.0853 61.7892V59.7085H67.6528V61.7892C67.6528 62.2305 67.5267 62.6088 67.3375 62.861C67.1484 63.1132 66.8331 63.2393 66.4548 63.3024L67.7789 65.2569Z" fill="#000C22"/>
<path d="M69.7335 59.7085H69.166V65.2569H69.7335V59.7085Z" fill="#000C22"/>
<path d="M71.4993 59.7085H75.9128V65.2569H75.3453V60.1498H71.4993V59.7085ZM71.5623 61.9783H72.1298V65.2569H71.5623V61.9783Z" fill="#000C22"/>
<path d="M80.5148 59.7085H84.9283V65.2569H84.3608V60.1498H80.5148V59.7085ZM80.5778 61.9783H81.1453V65.2569H80.5778V61.9783Z" fill="#000C22"/>
<path d="M89.0902 59.7085V60.1498H88.0184C87.8923 60.2759 87.7662 60.4651 87.6401 60.6542C87.577 60.8434 87.514 61.0956 87.514 61.4109C87.514 61.6631 87.577 61.9783 87.6401 62.3566L88.2706 65.32H87.7031L87.1357 62.4197C87.0726 62.1044 87.0096 61.7891 87.0096 61.5369C87.0096 60.9695 87.1987 60.5281 87.514 60.2129H86.1899V59.7715H89.0902V59.7085Z" fill="#000C22"/>
<path d="M90.0988 59.7085H94.5123V65.2569H93.9448V60.1498H90.0988V59.7085ZM90.1618 61.9783H90.7293V65.2569H90.1618V61.9783Z" fill="#000C22"/>
<path d="M101.006 59.7085C101.7 59.7085 102.204 59.8976 102.52 60.2129C102.835 60.5912 103.024 61.1586 103.024 61.9152V66.644H102.457V61.9152C102.457 61.2847 102.331 60.7803 102.078 60.5281C101.826 60.2759 101.448 60.0868 100.88 60.0868H99.5563V62.924H98.9889V59.7085H101.006Z" fill="#000C22"/>
<path d="M105.357 59.7085H104.789V65.2569H105.357V59.7085Z" fill="#000C22"/>
<path d="M106.617 65.257V64.8156H107.374C107.689 64.8156 107.941 64.7526 108.067 64.5634C108.193 64.3743 108.256 64.1221 108.256 63.7438V60.0869H107.059V59.6455H108.761V63.7438C108.761 64.2482 108.698 64.6265 108.509 64.8787C108.32 65.0678 108.004 65.1939 107.5 65.1939H106.617V65.257Z" fill="#000C22"/>
<path d="M110.464 59.7085H114.877V65.2569H114.31V60.1498H110.464V59.7085ZM110.527 61.9783H111.094V65.2569H110.527V61.9783Z" fill="#000C22"/>
<path d="M25.2195 51.9534C25.5348 51.8903 25.8501 51.8273 26.9219 51.8273H27.2372C27.2372 49.8097 27.048 45.5853 26.9219 44.1982H26.8589C26.4805 44.1982 25.5978 44.1982 25.2826 44.0721L25.6609 42.2437C26.2914 42.3698 27.6785 42.3067 28.9395 42.3067H32.4073C35.4967 42.3067 36.0642 43.0633 36.0642 46.6572V53.7818H34.4249V47.2246C34.4249 45.144 34.1727 44.1982 32.2181 44.1982H28.4982C28.6243 45.5223 28.8134 50.3771 28.8134 51.8273L28.4982 53.7188H26.8589C26.0392 53.7188 25.2826 53.7188 24.7782 53.7818L25.2195 51.9534Z" fill="#000C22"/>
<path d="M38.8381 48.7375C39.7208 47.4135 40.1621 46.3416 40.1621 45.522C40.1621 44.8284 39.7838 44.5762 38.775 44.324C38.2706 44.1979 37.8293 44.0718 37.514 43.8827L37.8923 42.0542C38.2076 42.1803 38.5859 42.3064 39.1533 42.4325C41.1709 42.8738 41.8645 43.5044 41.8645 45.0806C41.8645 46.4047 41.234 47.8548 40.2252 49.4311L38.8381 48.7375Z" fill="#000C22"/>
<path d="M43.5038 42.3698L45.5214 42.1807C45.6475 42.6851 45.9627 44.2613 46.5932 48.1704C48.6739 47.666 49.0522 46.8464 49.0522 45.3332C49.0522 44.5135 48.8 43.3156 48.4847 42.3698L50.4393 42.1807C50.6284 42.8742 50.8806 44.0091 50.8806 45.081C50.8806 47.0355 50.3132 48.864 46.7193 49.5575C46.7824 49.7467 46.9715 51.2599 47.0976 51.9534C47.539 51.8904 48.3586 51.8273 49.3674 51.6382C51.9525 51.0707 53.5287 49.9358 53.5287 46.405C53.5287 45.0179 53.2135 43.4417 52.8352 42.4329L54.8528 42.2437C55.105 43.0003 55.3572 44.3874 55.3572 45.9637C55.3572 51.1338 52.3308 52.8361 49.0522 53.4666C47.7281 53.7188 46.4041 53.8449 45.7105 53.908C45.3322 51.1338 44.0712 44.0722 43.5038 42.3698Z" fill="#000C22"/>
<path d="M57.7532 50.9446C57.7532 48.864 58.2576 46.9725 59.7077 45.3962C58.762 44.3244 57.6901 43.2525 56.8705 42.4959L56.9335 42.3698L59.2033 42.1807C60.2752 43.2525 61.8514 45.0179 64.0582 47.7921C64.8778 47.2247 65.4453 46.405 65.4453 45.0179C65.4453 44.1983 65.1931 43.2525 64.8148 42.3698L66.8954 42.1807C67.1476 43.0003 67.2737 43.7569 67.2737 44.6396C67.2737 46.342 66.391 47.9182 64.8778 48.8009C66.0127 50.188 67.7781 52.71 68.4086 53.7188H66.2019C65.5083 52.5839 63.6799 49.9989 60.6535 46.4681C59.7077 47.603 59.5186 49.1162 59.5816 50.4402C59.5816 51.6382 59.8969 52.8361 60.1491 53.7188H58.1315C57.9423 52.8992 57.7532 51.8904 57.7532 50.9446Z" fill="#000C22"/>
<path d="M75.4074 47.2247C75.4074 45.144 75.1552 44.1983 73.2006 44.1983H71.12C69.859 44.1983 69.1024 44.1352 68.7871 44.0722L69.1654 42.1807C69.6068 42.2437 70.6786 42.2437 72.0657 42.2437H73.3898C76.4792 42.2437 77.0467 43.0003 77.0467 46.5942V53.7188H75.4074V47.2247Z" fill="#000C22"/>
<path d="M79.2534 51.9534C79.8839 51.8273 81.3971 51.8273 82.595 51.8273H85.8106C85.8106 50.3771 85.8106 48.4226 85.8106 47.3507C85.7475 45.0809 85.4953 44.2613 83.5408 44.2613H81.7123C80.5144 44.2613 79.6947 44.1982 79.3795 44.1352L79.7578 42.2437C80.1991 42.3067 81.0818 42.3067 82.4689 42.3067H84.1082C87.1346 42.3067 87.4499 43.6938 87.4499 46.5941V50.0619C87.4499 50.5032 87.3868 51.512 87.3868 51.8273H88.9L88.5217 53.7188H81.6493C80.7666 53.7188 79.4425 53.7188 78.9381 53.7818L79.2534 51.9534Z" fill="#000C22"/>
<path d="M95.142 48.7375C96.0247 47.4135 96.4661 46.3416 96.4661 45.522C96.4661 44.8284 96.0878 44.5762 95.079 44.324C94.5746 44.1979 94.1332 44.0718 93.818 43.8827L94.1963 42.0542C94.5115 42.1803 94.8898 42.3064 95.4573 42.4325C97.4749 42.8738 98.1684 43.5044 98.1684 45.0806C98.1684 46.4047 97.5379 47.8548 96.5291 49.4311L95.142 48.7375Z" fill="#000C22"/>
<path d="M100.249 51.9531C100.754 51.89 102.141 51.89 103.465 51.827H108.004V48.044C108.004 45.7111 107.248 44.8284 104.663 44.3871C103.717 44.1979 102.897 44.0718 102.33 44.0088C102.015 44.6393 101.762 45.2698 101.762 45.7111C101.762 46.4677 102.267 46.9721 103.78 47.2243L103.339 49.0528C101.006 48.7375 100.186 47.6657 100.186 46.1525C100.186 44.8284 101.132 43.2522 101.573 42.0542C101.889 42.1172 103.086 42.3064 104.852 42.5586C108.004 43 109.644 44.0088 109.581 47.6657V51.9531C109.581 52.2053 109.391 53.4663 109.328 53.7185H102.771C101.699 53.7185 100.375 53.7185 99.934 53.7815L100.249 51.9531Z" fill="#000C22"/>
<path d="M114.561 47.1612C114.561 45.3327 114.372 44.7022 112.733 44.3239C111.976 44.1348 111.598 44.0717 111.283 43.9456L111.661 42.1172C111.913 42.2433 112.355 42.3063 113.111 42.4324C115.444 42.9368 116.201 43.6934 116.201 46.909V53.7815H114.561V47.1612Z" fill="#000C22"/>
<path d="M118.47 51.8899C118.975 51.8269 119.668 51.8269 121.055 51.8269H122.505V47.1612C122.505 45.3327 122.316 44.8283 120.425 44.387C119.668 44.1978 118.912 44.0717 118.596 43.9456L118.975 42.1172C119.227 42.2433 119.857 42.3694 120.803 42.5585C123.262 43.0629 124.208 43.7565 124.208 46.8459V51.953L123.829 53.7815H120.929C120.046 53.7815 118.596 53.7815 118.155 53.8445L118.47 51.8899Z" fill="#000C22"/>
</svg>
