<svg width="368" height="35" viewBox="0 0 368 35" fill="none" xmlns="http://www.w3.org/2000/svg">
<path d="M359.373 18.9516H352.867V7.07147H359.373C363.333 7.07147 365.596 9.47577 365.596 13.0115C365.737 16.5473 363.333 18.9516 359.373 18.9516ZM359.656 5.23288H350.745V29.9831H353.008V20.7901H359.797C365.03 20.7901 368 17.6787 368 13.0115C367.858 8.20291 364.888 5.23288 359.656 5.23288ZM341.128 5.23288V19.8001C341.128 25.1745 338.017 28.2859 332.925 28.2859C327.834 28.2859 324.864 25.033 324.864 19.8001V5.23288H322.601V19.9416C322.601 26.4473 326.42 30.2659 332.925 30.2659C339.431 30.2659 343.25 26.3059 343.25 19.9416V5.23288H341.128ZM304.215 28.2859C298.134 28.2859 293.749 23.7602 293.749 17.5373C293.749 11.3144 298.134 6.78861 304.215 6.78861C310.155 6.78861 314.539 11.3144 314.539 17.5373C314.681 23.7602 310.297 28.2859 304.215 28.2859ZM304.215 30.4074C311.428 30.4074 316.802 25.033 316.802 17.6787C316.802 10.3244 311.428 4.95002 304.215 4.95002C297.002 4.95002 291.628 10.3244 291.628 17.6787C291.628 25.033 297.002 30.4074 304.215 30.4074ZM271.403 7.07147H279.182C282.859 7.07147 285.122 9.19291 285.122 12.4458C285.122 15.8401 282.859 17.9616 279.182 17.9616H271.403V7.07147ZM287.244 12.4458C287.244 8.06148 284.273 5.09145 279.465 5.09145H269.282V29.8416H271.545V19.8001H279.465L284.981 29.9831H287.244V29.8416L281.586 19.6587C285.122 18.9516 287.244 16.2644 287.244 12.4458ZM262.918 16.2644H251.745V17.9616H260.938C261.22 24.1845 257.119 28.2859 251.038 28.2859C244.815 28.2859 240.572 23.9016 240.572 17.5373C240.572 11.1729 244.815 6.78861 251.038 6.78861C254.573 6.78861 257.543 8.34434 259.24 10.6072L260.655 9.33434C258.675 6.64718 255.139 4.80859 250.896 4.80859C243.4 4.80859 238.309 10.1829 238.309 17.5373C238.309 24.8916 243.542 30.2659 250.896 30.2659C258.958 30.4074 263.766 24.6087 262.918 16.2644Z" fill="#030404"/>
<path d="M224.308 29.5588V4.66721H219.358V20.7902L205.922 4.66721H202.386V29.4174H207.195V13.4358L220.631 29.4174H224.308V29.5588ZM185.273 25.3159C180.748 25.3159 177.495 21.9216 177.495 17.113C177.495 12.4458 180.889 8.9101 185.273 8.9101C189.799 8.9101 193.052 12.3044 193.052 17.113C193.052 21.7802 189.799 25.3159 185.273 25.3159ZM185.273 29.9831C192.486 29.9831 198.002 24.4674 198.002 17.113C198.002 9.75868 192.486 4.24292 185.273 4.24292C178.06 4.24292 172.545 9.75868 172.545 17.113C172.545 24.4674 178.06 29.9831 185.273 29.9831ZM168.16 29.5588V4.66721H163.21V20.7902L149.916 4.66721H146.38V29.4174H151.189V13.4358L164.625 29.4174H168.16V29.5588ZM127.429 21.073L131.247 11.4558L135.066 21.073H127.429ZM133.086 4.66721H129.409L118.801 29.276V29.5588H123.893L125.731 25.0331H136.48L138.319 29.5588H143.41V29.276L133.086 4.66721ZM118.518 14.9916H107.063V18.8102H113.851C113.568 22.7702 110.598 25.3159 106.497 25.3159C101.971 25.3159 98.7183 22.0631 98.7183 17.113C98.7183 12.163 101.971 8.76867 106.497 8.76867C108.76 8.76867 111.306 9.90011 112.72 11.7387L115.973 8.9101C113.851 6.22294 110.174 4.38435 106.356 4.38435C98.8597 4.38435 93.6268 9.75868 93.6268 17.113C93.6268 24.6088 99.0012 29.8417 106.356 29.8417C114.417 29.9831 119.508 23.7602 118.518 14.9916Z" fill="#030404"/>
<path d="M51.6223 2.97002C56.8552 2.97002 61.2395 5.94005 63.5024 10.1829H66.7553C64.2095 4.24289 58.4109 0 51.6223 0C44.9751 0 39.1765 4.10146 36.6307 9.75865L38.6108 13.0115C40.025 7.21291 45.2579 2.97002 51.6223 2.97002Z" fill="#030404"/>
<path d="M65.1991 17.3959H51.4804H50.7733V20.3659H64.7748C63.3605 26.5888 57.9862 31.1145 51.4804 31.1145C45.8232 31.1145 41.0146 27.5788 38.8932 22.6287L38.4689 21.7802L35.0746 15.5573L34.6503 14.8501L30.8317 8.34435C27.8616 3.25288 22.6287 0 16.5473 0C8.91007 0 2.4043 5.51576 0.565719 12.8701C0.14143 14.143 0 15.4158 0 16.6887C0 16.8301 0 16.9716 0 17.113C0 26.5888 7.49577 34.226 16.5473 34.226C23.3359 34.226 29.1345 30.1245 31.6802 24.1845L31.1145 22.9116L29.8417 20.6487L29.4174 19.9416H16.123V22.9116H28.9931C26.8716 27.7202 22.063 31.1145 16.5473 31.1145C10.0415 31.1145 4.66718 26.4473 3.25288 20.2244C2.97002 19.2344 2.82859 18.103 2.82859 16.9716C2.82859 16.5473 2.82859 15.9816 2.97002 15.5573C3.67717 8.48578 9.47579 2.97002 16.5473 2.97002C21.3559 2.97002 25.5988 5.51576 28.1445 9.47579C28.4274 9.90008 28.5688 10.3244 28.8517 10.7487L29.8417 12.4458L33.0945 18.5273L34.226 20.7902L37.196 25.7402C40.0246 30.8317 45.3989 34.0846 51.4804 34.0846C60.5319 34.0846 67.8862 26.5888 68.0277 17.2544H67.0377H65.1991V17.3959Z" fill="#030404"/>
</svg>
