<svg width="19" height="19" viewBox="0 0 19 19" fill="none" xmlns="http://www.w3.org/2000/svg">
<g clip-path="url(#clip0_11_958)">
<g clip-path="url(#clip1_11_958)">
<g clip-path="url(#clip2_11_958)">
<mask id="mask0_11_958" style="mask-type:luminance" maskUnits="userSpaceOnUse" x="0" y="0" width="19" height="19">
<path d="M18.38 0.799805H0.380005V18.7998H18.38V0.799805Z" fill="white"/>
</mask>
<g mask="url(#mask0_11_958)">
<path d="M9.38 0.799805C4.40946 0.799805 0.380005 4.82926 0.380005 9.7998C0.380005 14.7703 4.40946 18.7998 9.38 18.7998C14.3505 18.7998 18.38 14.7703 18.38 9.7998C18.38 4.82926 14.3505 0.799805 9.38 0.799805ZM9.66177 17.1692C9.55908 17.2613 9.45247 17.2806 9.38093 17.2806C9.30869 17.2806 9.20092 17.261 9.09663 17.1673C7.82993 16.0278 6.89762 14.571 6.36708 12.9581C8.34408 12.453 10.4208 12.446 12.4008 12.9371C11.8712 14.5592 10.9349 16.0246 9.66177 17.1692ZM6.02785 11.616C5.91962 11.022 5.86077 10.4148 5.86077 9.7998C5.86077 9.1848 5.91963 8.57765 6.02763 7.98365C7.14155 8.26772 8.28363 8.41034 9.42616 8.41034C10.5385 8.41034 11.6505 8.27488 12.7365 8.00557C12.842 8.59265 12.8995 9.19242 12.8995 9.7998C12.8995 10.4072 12.842 11.007 12.7365 11.594C10.535 11.048 8.22615 11.055 6.02785 11.616ZM9.09846 2.43042C9.20092 2.33834 9.30777 2.31895 9.37908 2.31895C9.45131 2.31895 9.55908 2.3388 9.66339 2.43226C10.9356 3.57665 11.8709 5.04134 12.4003 6.66249C10.4203 7.15334 8.34363 7.14665 6.36662 6.64149C6.89738 5.02795 7.83062 3.57018 9.09846 2.43042ZM14.0688 7.60103C14.8273 7.32849 15.5662 6.98649 16.277 6.57618C16.7369 7.5558 16.9954 8.64803 16.9954 9.7998C16.9954 10.9516 16.7369 12.0438 16.2772 13.0234C15.5665 12.6129 14.8275 12.2711 14.069 11.9986C14.2084 11.2818 14.2841 10.5463 14.2841 9.7998C14.2838 9.05326 14.2084 8.31803 14.0688 7.60103ZM15.5771 5.38172C14.9794 5.72649 14.3598 6.01842 13.7242 6.25449C13.2818 4.89134 12.5856 3.62995 11.6782 2.53934C13.2657 3.04311 14.6282 4.05457 15.5771 5.38172ZM7.08201 2.53957C6.18178 3.62165 5.48992 4.87195 5.04732 6.22288C4.41685 5.98357 3.80208 5.69095 3.20969 5.34434C4.15723 4.03565 5.50932 3.03849 7.08201 2.53957ZM2.50146 6.53442C3.20785 6.94818 3.94238 7.29411 4.69677 7.5708C4.55346 8.29726 4.47615 9.04288 4.47615 9.7998C4.47615 10.5567 4.55324 11.3023 4.69677 12.0288C3.94238 12.3057 3.20785 12.6514 2.50146 13.0652C2.02954 12.075 1.76462 10.968 1.76462 9.7998C1.76462 8.63165 2.02954 7.52465 2.50146 6.53442ZM3.20969 14.255C3.80185 13.9086 4.41663 13.6158 5.04732 13.3765C5.48992 14.7274 6.18178 15.978 7.08201 17.06C5.50932 16.5611 4.15723 15.564 3.20969 14.255ZM11.6782 17.06C12.5856 15.9692 13.2816 14.708 13.724 13.3449C14.3595 13.581 14.9792 13.8731 15.5768 14.2176C14.6282 15.5448 13.2657 16.5563 11.6782 17.06Z" fill="black"/>
</g>
</g>
</g>
</g>
<defs>
<clipPath id="clip0_11_958">
<rect width="18" height="18" fill="white" transform="translate(0.380005 0.799805)"/>
</clipPath>
<clipPath id="clip1_11_958">
<rect width="18" height="18" fill="white" transform="translate(0.380005 0.799805)"/>
</clipPath>
<clipPath id="clip2_11_958">
<rect width="18" height="18" fill="white" transform="translate(0.380005 0.799805)"/>
</clipPath>
</defs>
</svg>
