<svg width="438" height="77" viewBox="0 0 438 77" fill="none" xmlns="http://www.w3.org/2000/svg">
<rect width="438" height="76.58" rx="15" fill="white" fill-opacity="0.9"/>
<path d="M419.904 40.8143H412.455V27.2112H419.904C424.439 27.2112 427.03 29.9642 427.03 34.0128C427.192 38.0613 424.439 40.8143 419.904 40.8143ZM420.228 25.1059H410.026V53.4458H412.617V42.9196H420.39C426.382 42.9196 429.783 39.3568 429.783 34.0128C429.621 28.5067 426.22 25.1059 420.228 25.1059ZM399.014 25.1059V41.786C399.014 47.9398 395.451 51.5025 389.621 51.5025C383.791 51.5025 380.39 47.7778 380.39 41.786V25.1059H377.799V41.9479C377.799 49.3972 382.172 53.7697 389.621 53.7697C397.07 53.7697 401.443 49.2353 401.443 41.9479V25.1059H399.014ZM356.747 51.5025C349.783 51.5025 344.763 46.3203 344.763 39.1949C344.763 32.0694 349.783 26.8873 356.747 26.8873C363.548 26.8873 368.569 32.0694 368.569 39.1949C368.73 46.3203 363.71 51.5025 356.747 51.5025ZM356.747 53.9316C365.006 53.9316 371.16 47.7778 371.16 39.3568C371.16 30.9359 365.006 24.7821 356.747 24.7821C348.488 24.7821 342.334 30.9359 342.334 39.3568C342.334 47.7778 348.488 53.9316 356.747 53.9316ZM319.176 27.2112H328.083C332.294 27.2112 334.885 29.6403 334.885 33.365C334.885 37.2516 332.294 39.6807 328.083 39.6807H319.176V27.2112ZM337.314 33.365C337.314 28.3448 333.913 24.944 328.407 24.944H316.747V53.2839H319.338V41.786H328.407L334.723 53.4458H337.314V53.2839L330.836 41.624C334.885 40.8143 337.314 37.7374 337.314 33.365ZM309.46 37.7374H296.666V39.6807H307.193C307.516 46.8062 302.82 51.5025 295.857 51.5025C288.731 51.5025 283.873 46.4823 283.873 39.1949C283.873 31.9075 288.731 26.8873 295.857 26.8873C299.905 26.8873 303.306 28.6687 305.249 31.2597L306.869 29.8023C304.601 26.7254 300.553 24.6201 295.695 24.6201C287.112 24.6201 281.282 30.7739 281.282 39.1949C281.282 47.6159 287.274 53.7697 295.695 53.7697C304.925 53.9316 310.431 47.292 309.46 37.7374Z" fill="#030404"/>
<path d="M265.25 52.9603V24.4585H259.582V42.9199L244.197 24.4585H240.149V52.7983H245.655V34.4989L261.039 52.7983H265.25V52.9603ZM220.554 48.102C215.371 48.102 211.647 44.2154 211.647 38.7094C211.647 33.3653 215.533 29.3167 220.554 29.3167C225.736 29.3167 229.46 33.2034 229.46 38.7094C229.46 44.0535 225.736 48.102 220.554 48.102ZM220.554 53.4461C228.813 53.4461 235.128 47.1304 235.128 38.7094C235.128 30.2884 228.813 23.9727 220.554 23.9727C212.295 23.9727 205.979 30.2884 205.979 38.7094C205.979 47.1304 212.295 53.4461 220.554 53.4461ZM200.959 52.9603V24.4585H195.291V42.9199L180.068 24.4585H176.02V52.7983H181.526V34.4989L196.91 52.7983H200.959V52.9603ZM154.319 43.2438L158.692 32.2317L163.064 43.2438H154.319ZM160.797 24.4585H156.587L144.441 52.6364V52.9603H150.271L152.376 47.7781H164.684L166.789 52.9603H172.619V52.6364L160.797 24.4585ZM144.117 36.2802H131V40.6527H138.773C138.449 45.1871 135.048 48.102 130.352 48.102C125.17 48.102 121.445 44.3773 121.445 38.7094C121.445 33.0414 125.17 29.1548 130.352 29.1548C132.943 29.1548 135.858 30.4503 137.477 32.5556L141.202 29.3167C138.773 26.2398 134.562 24.1346 130.19 24.1346C121.607 24.1346 115.615 30.2884 115.615 38.7094C115.615 47.2923 121.769 53.2842 130.19 53.2842C139.421 53.4461 145.251 46.3207 144.117 36.2802Z" fill="#030404"/>
<path d="M67.5184 22.515C73.5102 22.515 78.5304 25.9158 81.1215 30.7741H84.8462C81.9312 23.9725 75.2916 19.1143 67.5184 19.1143C59.9071 19.1143 53.2675 23.8106 50.3525 30.2883L52.6197 34.0129C54.2391 27.3733 60.231 22.515 67.5184 22.515Z" fill="#030404"/>
<path d="M83.0648 39.0331H67.3565H66.5468V42.4339H82.579C80.9596 49.5594 74.8058 54.7415 67.3565 54.7415C60.8788 54.7415 55.3728 50.6929 52.9436 45.025L52.4578 44.0533L48.5712 36.9279L48.0854 36.1182L43.7129 28.6688C40.3121 22.8389 34.3203 19.1143 27.3568 19.1143C18.6119 19.1143 11.1626 25.43 9.05734 33.851C8.57152 35.3085 8.40958 36.7659 8.40958 38.2234C8.40958 38.3854 8.40958 38.5473 8.40958 38.7092C8.40958 49.5594 16.9925 58.3042 27.3568 58.3042C35.13 58.3042 41.7696 53.6079 44.6846 46.8063L44.0368 45.3489L42.5793 42.7578L42.0935 41.9481H26.871V45.3489H41.6077C39.1786 50.8549 33.6725 54.7415 27.3568 54.7415C19.9075 54.7415 13.7537 49.3974 12.1342 42.272C11.8104 41.1384 11.6484 39.8428 11.6484 38.5473C11.6484 38.0615 11.6484 37.4137 11.8104 36.9279C12.6201 28.8308 19.2597 22.515 27.3568 22.515C32.8628 22.515 37.7211 25.43 40.636 29.9644C40.9599 30.4502 41.1219 30.936 41.4457 31.4218L42.5793 33.3652L46.304 40.3287L47.5995 42.9197L51.0003 48.5877C54.2392 54.4176 60.393 58.1423 67.3565 58.1423C77.7207 58.1423 86.1417 49.5594 86.3037 38.8712H85.1701H83.0648V39.0331Z" fill="#030404"/>
</svg>
