<svg width="293" height="231" fill="none" xmlns="http://www.w3.org/2000/svg"><mask id="mask0_51_3739" style="mask-type:luminance" maskUnits="userSpaceOnUse" x="0" y="0" width="293" height="211"><path d="M293 0H0v210.473h293V0z" fill="#fff"/></mask><g mask="url(#mask0_51_3739)"><path d="M154.778 80.307c30.829-2.284 39.9-.063 46.624 2.22 6.724 2.284 13.004 2.22 11.862 14.97-1.142 12.687-12.497 9.198-18.459 9.642-5.963.444-88.934-5.772-97.244-6.406-8.31-.635-9.642-8.247-9.325-10.594.317-2.283 3.045-10.403 18.65-9.198 15.541 1.206 47.892-.634 47.892-.634z" fill="#fff"/></g><mask id="mask1_51_3739" style="mask-type:luminance" maskUnits="userSpaceOnUse" x="0" y="0" width="293" height="211"><path d="M293 0H0v210.473h293V0z" fill="#fff"/></mask><g mask="url(#mask1_51_3739)"><path d="M177.868 49.859c20.299-.444 25.056-4.948 28.545 10.086 3.489 15.034-111.2 13.638-119.192 13.702-24.231.19-19.6-10.467-7.992-16.937 7.294-4.06 90.773-6.66 98.639-6.851z" fill="#fff"/></g><mask id="mask2_51_3739" style="mask-type:luminance" maskUnits="userSpaceOnUse" x="0" y="0" width="293" height="211"><path d="M293 0H0v210.473h293V0z" fill="#fff"/></mask><g mask="url(#mask2_51_3739)"><path d="M86.777 29.306c-1.142 5.582 3.933 11.418 23.978 10.657 20.172-.761 107.837 5.582 110.819-4.44 3.045-9.96-8.31-17.635-19.982-17.254-11.735.38-91.154.888-95.15 1.078-4.06.254-17.508-.634-19.665 9.96z" fill="#fff"/></g><mask id="mask3_51_3739" style="mask-type:luminance" maskUnits="userSpaceOnUse" x="0" y="0" width="293" height="211"><path d="M293 0H0v210.473h293V0z" fill="#fff"/></mask><g mask="url(#mask3_51_3739)"><path d="M257.921 180.469h9.008v-29.624c0-11.101-3.616-15.414-12.053-15.414H244.22v6.914h7.865c4.187 0 5.836 1.967 5.836 7.739v30.385zm-29.116-45.038h-6.978l-1.585 7.548h-.127l-1.903-7.548h-8.247l5.9 21.314-5.646 23.724h8.754l8.31-38.124c2.474 0 3.996.571 3.996 6.28v24.929h-6.66v6.915h15.668v-30.385c.063-11.228-3.743-14.653-11.482-14.653zm-33.556 45.038h9.007v-45.038h-13.067v6.914h4.06v38.124zm-20.743-45.038h-19.728v6.914h2.855v31.209h-5.202v6.915h14.209v-38.124h5.202c3.235 0 4.821 1.078 4.821 6.724v31.4h9.007v-30.385c-.063-11.101-3.489-14.653-11.164-14.653zm-56.583 30.702c4.821-5.709 6.534-11.228 6.534-19.411v-11.228h-12.053v6.915h3.109v3.425c0 8.056-.761 12.56-3.679 16.746l6.089 3.553zm-17.063 14.336h21.186c11.926 0 17.191-4.504 17.191-18.333v-26.705h-12.243v6.914h3.235v20.109c0 8.563-2.156 11.1-8.246 11.1h-12.052v-38.123h-9.071v45.038zm-17.127 0h9.007v-45.038H79.673v6.914h4.06v38.124zm-10.467-6.915v-38.123H51.508v6.914h12.75v31.209h-12.75v6.915h25.374v-6.915h-3.616zm-46.18 6.915h9.515c6.534-7.676 9.452-16.239 9.452-25.881v-19.157H31.78v-5.392h-8.183v12.306h13.448v12.243c0 9.515-3.171 16.746-9.959 25.881z" fill="#fff"/></g><mask id="mask4_51_3739" style="mask-type:luminance" maskUnits="userSpaceOnUse" x="0" y="0" width="293" height="211"><path d="M293 0H0v210.473h293V0z" fill="#fff"/></mask><g mask="url(#mask4_51_3739)"><path d="M279.742 196.961l-4.059 8.12-4.06-8.12h-2.474v12.751h1.649v-10.784l4.123 7.993h1.396l4.123-7.993v10.784h1.649v-12.751h-2.347zm-21.377 11.355v-4.694h5.836v-1.332h-5.836v-3.933h6.534v-1.396h-8.31v12.751h8.437v-1.396h-6.661zm-13.701 1.396h8.056v-1.396h-6.344v-11.355H244.6v12.751h.064zm-11.609-4.504l2.347-6.407 2.347 6.407h-4.694zm6.28 4.504h1.903l-5.011-12.751h-1.713l-5.011 12.751h1.903l1.205-3.235h5.519l1.205 3.235zm-16.937.126c2.982 0 4.568-1.268 4.568-3.171 0-1.903-.889-2.918-4.187-4.25-2.093-.888-2.791-1.523-2.791-2.538s.824-1.776 2.537-1.776c2.157 0 2.664 1.206 2.601 2.728h1.586c.127-2.22-.761-4.06-4.25-4.06-2.855 0-4.25 1.332-4.25 2.982 0 1.649.888 2.537 4.059 3.932 2.284.952 2.918 1.65 2.918 2.918 0 1.142-.951 1.903-2.727 1.903-1.84 0-2.982-.951-2.664-3.362h-1.65c-.38 3.553 1.523 4.694 4.25 4.694zm-13.574 0c3.425 0 5.011-1.395 5.011-4.694v-8.183h-1.776v8.183c0 2.347-.952 3.362-3.235 3.362-2.284 0-3.236-.951-3.236-3.362v-8.183h-1.776v8.183c0 3.299 1.586 4.694 5.012 4.694zm-15.986-11.544h2.22c1.84 0 2.728.761 2.728 2.41s-.825 2.411-2.728 2.411h-2.22v-4.821zm6.724 2.41c0-2.537-1.268-3.743-4.06-3.743h-4.44v12.751h1.776v-5.329h2.284l2.601 5.329h1.776l-2.664-5.456c1.903-.317 2.727-1.522 2.727-3.552zm-19.347 7.612v-4.694h5.836v-1.332h-5.836v-3.933h6.534v-1.396h-8.31v12.751h8.437v-1.396h-6.661zm-11.228 1.396h1.586c2.284 0 3.045-.762 3.045-3.045v-9.706h-1.776v9.516c0 1.395-.444 1.839-1.586 1.839h-1.269v1.396zm-15.224 0h8.056v-1.396h-6.343v-11.355H153.7v12.751h.063zm-11.545-4.504l2.347-6.407 2.347 6.407h-4.694zm6.28 4.504h1.903l-5.011-12.751h-1.713l-5.011 12.751h1.903l1.205-3.235h5.519l1.205 3.235zm-17.888 0h1.839l4.821-12.751h-1.903l-3.869 10.657-3.87-10.657h-1.903l4.885 12.751zm-12.814-1.206c-2.22 0-3.362-1.141-3.362-3.806v-2.791c0-2.6 1.142-3.742 3.362-3.742s3.362 1.142 3.362 3.742v2.791c0 2.665-1.078 3.806-3.362 3.806zm0 1.332c3.426 0 5.075-1.585 5.075-5.264V202.1c0-3.68-1.649-5.265-5.075-5.265-3.425 0-5.138 1.585-5.138 5.265v2.474c.064 3.679 1.713 5.264 5.138 5.264zm-11.354-12.877v5.456h-6.534v-5.456h-1.776v12.751h1.776v-5.9h6.534v5.9h1.776v-12.751h-1.776zm-17.127 12.877c2.98 0 4.567-1.268 4.567-3.171 0-1.903-.888-2.918-4.187-4.25-2.093-.888-2.79-1.523-2.79-2.538s.824-1.776 2.536-1.776c2.157 0 2.665 1.206 2.601 2.728h1.586c.127-2.22-.761-4.06-4.25-4.06-2.855 0-4.25 1.332-4.25 2.982 0 1.649.888 2.537 4.06 3.932 2.283.952 2.918 1.65 2.918 2.918 0 1.142-.952 1.903-2.728 1.903-1.84 0-2.981-.951-2.664-3.362h-1.65c-.317 3.553 1.586 4.694 4.25 4.694zm-12.053-12.877h-9.261v1.396h3.806v11.355h1.776v-11.355h3.743v-1.396h-.064zm-17.444 11.545c-2.22 0-3.362-1.141-3.362-3.806v-2.791c0-2.6 1.142-3.742 3.362-3.742s3.362 1.142 3.362 3.742v2.791c0 2.665-1.142 3.806-3.362 3.806zm0 1.332c3.425 0 5.075-1.585 5.075-5.264V202.1c0-3.68-1.65-5.265-5.075-5.265-3.425 0-5.138 1.585-5.138 5.265v2.474c.063 3.679 1.712 5.264 5.138 5.264zm-12.116-12.877l-4.06 8.12-4.06-8.12H37.11v12.751h1.649v-10.784l4.123 7.993h1.523l4.123-7.993v10.784h1.649v-12.751h-2.474zm-22.138 8.247l2.347-6.407 2.347 6.407h-4.694zm6.28 4.504h1.903l-5.012-12.751h-1.712l-5.011 12.751h1.902l1.206-3.235h5.518l1.206 3.235zM12.56 198.294h2.22c1.84 0 2.728.761 2.728 2.41s-.825 2.411-2.728 2.411h-2.22v-4.821zm6.66 2.41c0-2.537-1.268-3.743-4.06-3.743h-4.44v12.751h1.776v-5.329h2.284l2.6 5.329h1.777l-2.664-5.456c1.903-.317 2.727-1.522 2.727-3.552z" fill="#fff"/></g><path d="M49.795 221.066c1.586 0 1.903.635 1.903 1.903 0 1.523.064 3.109.254 4.885l-1.015.19.127-4.06c.063-1.268-.444-1.522-1.522-1.522h-1.967c-.507 1.205-.507 1.649-.507 1.839 0 .191 0 .635.761 2.411l-.19 1.205h-1.46c-.317 0-.38 0-.507.127l-.38-.063.253-1.015c.064-.318.127-.318 1.015-.318h.317c-.57-1.459-.634-1.966-.634-2.093s.064-.444.761-2.093h-.38c-.571 0-.762-.064-.762-.508l.127-1.268h.444c0 .317.19.444.698.444h2.664v-.064zm6.661 0c1.142 0 1.395.444 1.395 1.713 0 1.713.064 3.108.254 5.075l-1.015.19.127-4.25c0-1.269-.317-1.396-1.015-1.396-.697 0-.888-.063-.824-.507l.127-1.269h.444c-.064.381.126.444.507.444zm5.963-.38c0 .317.19.444.698.444h3.932c.571 0 .762 0 .698.507l-.127 1.269.254 4.948-.951.19.126-4.631c0-.824-.127-1.015-.888-1.015H63.18v5.456l-1.015.19.38-5.646c-.507 0-.76-.063-.697-.507l.127-1.269.444.064zm10.276-.127c0 .317.19.38.698.507.76.127 1.522.254 2.727.381.825.127 1.142 1.522 1.142 3.108 0 1.269-.254 2.664-.507 3.362h-4.25c-.317 0-.381 0-.508.127l-.38-.063.253-1.015c.064-.318.127-.318 1.015-.318h3.426c.19-.38.38-1.141.38-1.839 0-1.015-.317-1.967-1.142-2.093-.76-.127-1.459-.191-2.156-.318-.127.381-.127.635-.127.825 0 .444.19.507 1.142.634l-.19 1.269c-1.27-.127-1.777-.254-1.777-.952 0-.317.127-.951.444-1.776-.444-.063-.634-.19-.57-.634l.126-1.205h.254zm10.085 7.485c-1.078-2.22-1.268-3.425-1.268-3.806 0-.317.254-1.205.508-1.903h-.508c-.57 0-.761-.063-.761-.508l.127-1.268h.444c0 .317.19.444.698.444h.888l-.19 1.268c-.381.254-.508.952-.508 1.65 0 .571.444 1.649.888 2.474l1.269-4.06c-.444 0-.635-.127-.635-.571l.127-1.205h.444c0 .317.19.444.698.444h.888l-.19 1.268c-.825.064-.888.254-2.093 4.314.951-.19 2.347-.507 2.79-.761.952-.571 1.587-2.411 1.587-2.918 0-.381-.127-.508-.508-.508-.57 0-.761-.063-.761-.507l.127-1.269h.444c0 .317.19.444.698.444h.126c.571 0 .762.064.762.508 0 1.586-1.46 5.138-2.41 5.518-.889.444-2.411.825-3.68.952zm10.53-6.978c.826 0 1.08.381 1.08 1.079 0 .19 0 .38-.064.634.507-.571.951-1.142 1.332-1.776h1.459c1.522 0 1.84 1.649 1.84 3.362 0 1.268-.19 2.664-.381 3.425h-3.108c-.318 0-.38 0-.508.127l-.38-.063.253-1.015c.064-.317.127-.317 1.015-.317h2.284c.063-.508.127-1.142.127-1.713 0-1.332-.254-2.538-1.65-2.538a2.54 2.54 0 00-2.473 1.967c-.254.951-.444 2.157-.571 3.489l-1.015.19c.38-1.395 1.078-4.187 1.078-5.011 0-.508-.19-.635-.507-.635-.698 0-.888-.063-.825-.507l.127-1.269h.444c-.127.508.063.571.444.571zm8.755-2.918l.127-1.268h.444c0 .317.19.444.697.444h.508l-.19 1.268c-.381 0-.444.254-.508.571-.063.444-.063 1.079-.063 1.459 0 .317 0 .444.444.444h2.22c1.142 0 1.649.508 1.649 1.586 0 1.205-.317 3.108-.824 3.679-.381.381-1.079.698-1.967 1.269-.317.19-.38.317-.444.444l-.381-.063.254-1.142c0-.127.064-.254.254-.381 1.142-.634 1.586-.825 2.093-1.205.191-.317.381-.952.381-1.713 0-.824-.508-1.078-1.205-1.078h-2.411c-.571 0-.761-.127-.698-.571l.254-3.172c-.444-.063-.698-.127-.634-.571zm15.541 9.769c-.19-.761-.317-1.522-.317-2.284 0-1.078.19-2.093.507-3.235-.571 0-.761-.063-.697-.507l.126-1.269h.444c0 .317.191.444.698.444h2.411c2.03 0 2.093.952 2.093 2.538 0 .761 0 2.6-.444 4.25h-4.821v.063zm.507-2.728c0 .825.064 1.459.635 1.459h2.854c.571 0 .698-.444.698-1.776 0-1.839 0-2.41-1.522-2.41h-2.284c-.127.254-.381 1.649-.381 2.727zm8.057-7.041l.126-1.268h.444c0 .317.191.444.698.444h.508l-.191 1.268c-.38 0-.444.254-.507.571-.063.444-.063 1.079-.063 1.459 0 .317-.001.444.444.444h2.22c1.142 0 1.649.508 1.649 1.586 0 1.205-.317 3.108-.825 3.679-.38.381-1.078.698-1.966 1.269-.317.19-.381.317-.444.444l-.381-.063.254-1.142c0-.127.063-.254.254-.381 1.142-.634 1.586-.825 2.093-1.205.19-.317.381-.952.381-1.713 0-.824-.508-1.078-1.206-1.078h-2.41c-.571 0-.761-.127-.698-.571l.254-3.172c-.444-.063-.698-.127-.634-.571zm10.91 9.896c-1.078-2.22-1.269-3.425-1.269-3.806 0-.317.254-1.205.508-1.903h-.508c-.57 0-.761-.063-.761-.508l.127-1.268h.444c0 .317.19.444.698.444h.888l-.19 1.268c-.381.254-.508.952-.508 1.65 0 .571.444 1.649.888 2.474l1.269-4.06c-.444 0-.634-.127-.634-.571l.126-1.205h.445c0 .317.19.444.697.444h.888l-.19 1.268c-.825.064-.888.254-2.093 4.314.951-.19 2.347-.507 2.791-.761.951-.571 1.586-2.411 1.586-2.918 0-.381-.127-.508-.508-.508-.571 0-.761-.063-.761-.507l.127-1.269h.444c0 .317.19.444.698.444h.127c.57 0 .761.064.761.508 0 1.586-1.459 5.138-2.411 5.518-.951.444-2.474.825-3.679.952zm10.34-6.978c1.142 0 1.395.444 1.395 1.713 0 1.713.064 3.108.254 5.075l-1.015.19.127-4.25c0-1.269-.317-1.396-1.015-1.396s-.888-.063-.825-.507l.127-1.269h.444c-.063.381.127.444.508.444zm6.216 0c.825 0 1.079.381 1.079 1.079 0 .19 0 .38-.064.634.508-.571.952-1.142 1.332-1.776h1.459c1.523 0 1.84 1.649 1.84 3.362 0 1.268-.19 2.664-.381 3.425h-3.108c-.317 0-.381 0-.507.127l-.381-.063.254-1.015c.063-.317.127-.317 1.015-.317h2.283c.064-.508.127-1.142.127-1.713 0-1.332-.254-2.538-1.649-2.538a2.54 2.54 0 00-2.474 1.967c-.254.951-.444 2.157-.571 3.489l-1.015.19c.381-1.395 1.078-4.187 1.078-5.011 0-.508-.19-.635-.507-.635-.698 0-.888-.063-.825-.507l.127-1.269h.444c-.127.508.064.571.444.571zm16.303 4.758c.571 0 1.459.634 1.459 1.712 0 1.206-1.079 1.903-2.094 2.157l-.19-.444c.761-.317 1.205-.698 1.205-1.332 0-.571-.444-.951-1.015-1.078-.063 0-.19-.127-.19-.381.064-.38.444-.634.825-.634zm8.5-4.758c1.586 0 2.093.571 2.093 1.84 0 1.395-.19 2.664-.571 3.235-.253.381-.507.507-2.03 1.459-.317.19-.38.254-.507.381l-.381-.064.254-1.078c0-.127.063-.254.254-.381 1.268-.761 1.712-1.078 2.03-1.332.253-.381.317-.888.317-1.459 0-1.078-.571-1.332-1.776-1.332h-2.347c-.571 0-.762-.063-.762-.508l.127-1.268h.444c0 .317.191.444.698.444h2.157v.063zm-2.22 3.108v5.963l-1.015.191c.127-1.967.19-3.933.253-5.9l.571-.254h.191zm9.007-3.108c1.015 0 1.332.381 1.332 1.142 0 .698-.317 1.649-.57 2.855l-1.015.19c.444-1.015.761-1.776.761-2.22 0-.444-.254-.635-.952-.635h-.19c-.571 0-.761-.063-.761-.507l.127-1.269h.444c.063.444.38.444.824.444zm7.485 2.22l.318-1.839a1.782 1.782 0 011.332-.634c1.395 0 1.903 1.332 1.903 2.664s-.571 3.235-1.396 3.679c-.824.444-2.157.761-3.171.951-1.079-2.22-1.269-3.425-1.269-3.806 0-.317.38-1.205.698-1.903h-.508c-.571 0-.761-.063-.761-.507l.127-1.269h.444c0 .317.19.444.698.444h1.015l-.191 1.269c-.571.254-.761 1.142-.761 1.713 0 .571.444 1.712.952 2.664.697-.127 2.283-.571 2.664-.825.444-.444.698-1.268.698-1.966 0-1.332-.762-1.84-1.459-1.84-.698 0-.825.381-1.079 1.205h-.254zm7.993-2.22c1.142 0 1.396.444 1.396 1.713 0 1.713.063 3.108.253 5.075l-1.015.19.127-4.25c0-1.269-.317-1.396-1.015-1.396-.697 0-.888-.063-.824-.507l.127-1.269h.444c0 .381.19.444.507.444zm6.153-.38c0 .317.19.444.698.444h1.649c1.523 0 1.903.634 1.903 1.903v2.347c0 1.205.127 1.268.825 1.268l-.19 1.206h-4.948c-.317 0-.381 0-.508.127l-.38-.064.253-1.015c.064-.317.127-.317 1.015-.317h3.426c-.191-1.078-.191-2.093-.254-3.045 0-.951-.381-1.205-1.332-1.205h-1.967c-.57 0-.761-.063-.761-.508l.127-1.268.444.127zm15.351.38c1.015 0 1.332.381 1.332 1.142 0 .698-.317 1.649-.571 2.855l-1.015.19c.444-1.015.762-1.776.762-2.22 0-.444-.254-.635-.952-.635h-.19c-.571 0-.761-.063-.761-.507l.126-1.269h.444c.064.444.381.444.825.444zm7.549 0c1.586 0 2.156.571 2.156 2.094 0 .761.064 2.791.254 4.694l-1.015.19.127-3.806c.064-1.586-.698-1.84-1.776-1.84H227.6c-.571 0-.761-.063-.761-.507l.127-1.269h.444c0 .317.19.444.697.444h1.65zm6.914 0c1.142 0 1.395.444 1.395 1.713 0 1.713.064 3.108.254 5.075l-1.015.19.127-4.25c0-1.269-.317-1.396-1.015-1.396s-.888-.063-.824-.507l.126-1.269h.444c-.063.381.127.444.508.444zm7.168 0c1.142 0 1.395.444 1.395 1.586 0 1.332 0 3.299.698 5.202l-.951.19c-.191-.698-.254-1.459-.317-2.093a18.939 18.939 0 00-1.015 1.966h-1.015c-.317 0-.381 0-.508.127l-.38-.063.253-1.015c.064-.254.127-.318.825-.318h.698c.19-.126.761-.888 1.078-1.712v-1.079c0-1.268-.317-1.395-1.142-1.395-.697 0-.888-.064-.888-.508l.127-1.268h.444c.064.317.19.38.698.38zm6.28 0c.825 0 1.078.381 1.078 1.079 0 .19 0 .38-.063.634.507-.571.951-1.142 1.332-1.776h1.459c1.522 0 1.84 1.649 1.84 3.362 0 1.268-.191 2.664-.381 3.425h-3.108c-.318 0-.381 0-.508.127l-.38-.063.253-1.015c.064-.317.127-.317 1.015-.317h2.284c.063-.508.127-1.142.127-1.713 0-1.332-.254-2.538-1.65-2.538a2.54 2.54 0 00-2.473 1.967c-.254.951-.444 2.157-.571 3.489l-1.015.19c.38-1.395 1.078-4.187 1.078-5.011 0-.508-.19-.635-.507-.635-.698 0-.888-.063-.825-.507l.127-1.269h.444c-.127.508.127.571.444.571z" fill="#fff"/></svg>