<svg width="271" height="53" fill="none" xmlns="http://www.w3.org/2000/svg"><path d="M51.918 35.8c18.847-1.128 24.393.067 28.503 1.263 4.11 1.196 7.95 1.196 7.213 7.872-.737 6.643-7.678 4.783-11.323 5.015-3.646.233-54.37-3.188-59.41-3.554-5.08-.332-5.856-4.35-5.662-5.546.194-1.196 1.9-5.448 11.44-4.783 9.5.597 29.24-.266 29.24-.266zm14.194-15.909c12.448-.2 15.318-2.524 17.45 5.348 2.133 7.872-68.019 6.908-72.905 6.942-14.814.033-11.944-5.514-4.847-8.902 4.498-2.093 55.532-3.322 60.302-3.388zM10.502 8.93c-.698 2.923 2.365 5.979 14.62 5.647 12.332-.366 65.886 3.122 67.786-2.093C94.77 7.27 87.867 3.25 80.693 3.417c-7.174.166-55.726.298-58.17.398-2.481.067-10.703-.432-12.021 5.115zm245.12 17.907l5.506.034.078-15.512c.039-5.812-2.172-8.07-7.368-8.07l-6.515-.034v3.62h4.809c2.559 0 3.567 1.03 3.567 4.053l-.077 15.91zM237.9 3.223h-4.266l-.97 3.952h-.077l-1.125-3.985h-5.041l3.567 11.16-3.49 12.422 5.352.033 5.196-19.962c1.513 0 2.443.332 2.405 3.322l-.039 13.053h-4.072v3.62l9.579.034.077-15.91c-.039-5.912-2.365-7.74-7.096-7.74zm-20.592 23.483l5.506.033.117-23.583-7.989-.033v3.62h2.482l-.116 19.963zM204.743 3.089l-12.06-.033v3.62h1.745l-.078 16.342h-3.18v3.62l8.687.034.077-19.963h3.18c1.978 0 2.948.565 2.909 3.554l-.078 16.442 5.507.033.077-15.91c0-5.846-2.132-7.706-6.786-7.739zm-34.669 15.976c2.947-2.99 4.033-5.879 4.033-10.163l.039-5.88-7.368-.033v3.62h1.9v1.794c0 4.219-.504 6.577-2.288 8.769l3.684 1.893zm-10.509 7.474l12.952.033c7.291.033 10.51-2.325 10.548-9.566l.078-13.983-7.485-.034v3.62h1.978l-.039 10.53c0 4.484-1.357 5.812-5.08 5.812l-7.368-.033.078-19.962-5.507-.033-.155 23.616zm-10.432-.034l5.507.034.116-23.583-7.988-.033v3.62h2.482l-.117 19.962zm-6.36-3.62l.078-19.962-13.301-.033v3.62l7.794.033-.077 16.342-7.795-.067v3.62l15.512.034v-3.62l-2.211.033zm-28.309 3.52l5.817.034c3.995-3.986 5.817-8.47 5.856-13.552l.039-10.03-8.726-.034V0h-5.002l-.039 6.444 8.221.033v6.377c0 4.982-1.939 8.769-6.166 13.552zm154.459 9.102l-2.482 4.251-2.443-4.251h-1.512l-.039 6.676h1.008l.039-5.647 2.482 4.185h.853l2.521-4.185-.039 5.647h1.008l.039-6.676h-1.435zm-13.107 5.912V38.96h3.567v-.698h-3.567v-2.059h3.994v-.73h-5.08l-.039 6.676h5.158v-.731h-4.033zm-8.377.73h4.925v-.73h-3.878l.039-5.946h-1.086v6.677zm-7.058-2.424l1.435-3.355 1.396 3.388-2.831-.033zm3.801 2.391h1.163l-3.025-6.71h-1.047l-3.102 6.677h1.163l.737-1.694h3.374l.737 1.727zm-10.354.034c1.822 0 2.792-.631 2.792-1.661 0-.997-.543-1.528-2.521-2.259-1.241-.465-1.706-.797-1.706-1.328 0-.532.504-.93 1.551-.93 1.319 0 1.629.63 1.59 1.461h.969c.078-1.163-.465-2.126-2.598-2.126-1.745 0-2.598.698-2.598 1.561 0 .864.543 1.329 2.482 2.06 1.396.498 1.784.897 1.784 1.528 0 .597-.582.996-1.668.996-1.124 0-1.822-.498-1.629-1.76h-1.008c-.271 1.826.931 2.458 2.56 2.458zm-8.299-.034c2.094 0 3.063-.73 3.063-2.424v-4.285h-1.085v4.285c0 1.229-.582 1.76-1.978 1.727-1.396 0-1.978-.498-1.978-1.76v-4.285h-1.086v4.284c0 1.728.97 2.458 3.064 2.458zm-9.734-6.078h1.357c1.125 0 1.668.399 1.668 1.262 0 .864-.504 1.262-1.668 1.262h-1.357v-2.524zm4.111 1.262c0-1.328-.776-1.96-2.482-1.96h-2.715l-.038 6.677h1.085v-2.79h1.396l1.552 2.79h1.086l-1.629-2.857c1.202-.133 1.745-.764 1.745-1.86zm-11.828 3.986v-2.458h3.568v-.698h-3.568v-2.059h3.994v-.73h-5.08l-.039 6.676h5.158v-.731h-4.033zm-6.903.697h.97c1.396 0 1.861-.398 1.861-1.594l.039-5.082h-1.086l-.039 4.982c0 .731-.271.964-.969.964h-.776v.73zm-9.307-.033h4.925v-.73h-3.878l.039-5.946h-1.086v6.676zm-7.058-2.391l1.435-3.355 1.396 3.355h-2.831zm3.84 2.391h1.163l-3.025-6.71h-1.047l-3.102 6.677h1.163l.737-1.694h3.374l.737 1.727zm-10.936-.033h1.124l2.986-6.676h-1.163l-2.404 5.547-2.327-5.58h-1.163l2.947 6.709zm-7.795-.664c-1.357 0-2.055-.598-2.055-1.993v-1.462c0-1.361.698-1.96 2.055-1.96 1.357 0 2.055.599 2.017 1.96v1.462c0 1.428-.66 1.993-2.017 1.993zm0 .697c2.094 0 3.102-.83 3.141-2.757v-1.295c0-1.926-1.008-2.757-3.102-2.757s-3.141.797-3.141 2.724v1.295c-.039 1.96 1.008 2.79 3.102 2.79zm-6.941-6.776v2.857h-3.995v-2.857h-1.086l-.038 6.677h1.085v-3.09h3.995v3.09h1.086l.038-6.677h-1.085zm-10.51 6.743c1.823 0 2.792-.631 2.792-1.66 0-.997-.542-1.529-2.52-2.26-1.241-.464-1.707-.797-1.707-1.328s.505-.93 1.552-.93c1.318 0 1.628.631 1.59 1.462h.969c.078-1.163-.465-2.126-2.598-2.126-1.745 0-2.598.697-2.598 1.56 0 .864.543 1.33 2.482 2.06 1.396.498 1.783.897 1.783 1.528 0 .598-.581.996-1.667.996-1.125 0-1.823-.498-1.629-1.76h-1.008c-.233 1.827.931 2.458 2.559 2.458zm-7.329-6.776l-5.662-.033v.73h2.327l-.039 5.946h1.086l.039-5.945h2.288l-.039-.698zm-10.703 6.012c-1.357 0-2.055-.598-2.055-1.993V37.7c0-1.362.698-1.96 2.055-1.96 1.357 0 2.055.598 2.016 1.96v1.461c.039 1.395-.659 1.993-2.016 1.993zm0 .698c2.094 0 3.102-.83 3.141-2.757v-1.296c0-1.926-1.008-2.756-3.102-2.756s-3.142.797-3.142 2.723v1.296c0 1.926 1.009 2.756 3.103 2.79zm-7.368-6.776l-2.482 4.251-2.443-4.251h-1.513l-.038 6.676h1.008l.039-5.647 2.482 4.185h.853l2.52-4.185-.038 5.647h1.008l.039-6.676h-1.435zm-13.534 4.251l1.435-3.354 1.396 3.354h-2.831zm3.8 2.392h1.163l-3.024-6.71h-1.047l-3.103 6.676h1.164l.736-1.693h3.374l.737 1.727zm-11.789-6.012h1.357c1.125 0 1.668.398 1.668 1.262s-.504 1.262-1.668 1.262h-1.357v-2.524zm4.111 1.262c0-1.329-.776-1.96-2.482-1.96h-2.715l-.038 6.676h1.085v-2.79h1.396l1.552 2.79h1.085l-1.628-2.856c1.241-.166 1.745-.797 1.745-1.86zm18.614 10.728c.969 0 1.163.333 1.163.997 0 .797.039 1.627.155 2.557l-.62.1.077-2.126c.039-.664-.271-.83-.891-.83h-1.203c-.31.631-.31.864-.31.963 0 .1 0 .332.466 1.262l-.117.631h-.892c-.194 0-.232 0-.31.067l-.233-.033.155-.532c.039-.166.078-.166.621-.166h.194c-.349-.764-.388-1.03-.388-1.096 0-.067.039-.233.504-1.096h-.233c-.349 0-.465-.033-.426-.266l.077-.664h.272c0 .166.116.232.427.232h1.512zm4.072.034c.698 0 .853.265.853.896 0 .897.039 1.628.155 2.658l-.62.1.077-2.226c.039-.665-.194-.73-.62-.73-.427 0-.543-.034-.505-.267l.078-.664.272.033c0 .133.116.2.31.2zm3.684-.233c0 .166.116.233.426.233h2.405c.349 0 .465 0 .426.265l-.077.665.155 2.59-.582.1.078-2.425c0-.431-.078-.531-.543-.531h-1.823v2.856l-.62.1.271-2.956c-.31 0-.465-.033-.426-.266l.077-.664.233.033zm6.282-.033c0 .166.116.2.427.266.465.066.93.132 1.667.199.504.066.698.797.698 1.627 0 .665-.155 1.395-.349 1.76h-2.598c-.194 0-.233 0-.31.067l-.233-.033.155-.532c.039-.165.078-.165.621-.165h2.094c.116-.2.232-.598.232-.964 0-.531-.155-1.03-.698-1.096-.465-.066-.892-.1-1.318-.166-.078.2-.078.332-.078.432 0 .232.117.266.698.332l-.116.664c-.776-.066-1.086-.133-1.086-.498 0-.166.078-.498.272-.93-.272-.033-.388-.1-.349-.332l.077-.631h.194zm6.127 3.952c-.62-1.162-.775-1.826-.775-1.992 0-.166.155-.632.31-.997h-.31c-.349 0-.466-.033-.427-.266l.078-.664.271.033c0 .166.116.233.427.233h.543l-.117.664c-.232.133-.31.498-.31.864 0 .299.271.863.543 1.295l.776-2.126c-.272 0-.388-.066-.388-.299l.077-.63h.272c0 .165.116.232.426.232h.543l-.116.664c-.504.033-.543.133-1.28 2.259.582-.1 1.435-.266 1.706-.399.582-.299.97-1.262.97-1.528 0-.199-.078-.266-.31-.266-.349 0-.466-.033-.427-.265l.078-.665.271.034c0 .166.116.232.427.232h.077c.349 0 .466.033.466.266 0 .83-.892 2.69-1.474 2.89-.62.199-1.551.365-2.327.431zm6.438-3.62c.504 0 .659.2.659.565 0 .1-.039.199-.039.332.31-.3.582-.598.814-.93h.892c.931 0 1.086.863 1.086 1.76 0 .664-.155 1.395-.232 1.794h-1.901c-.194 0-.232 0-.31.066l-.233-.033.156-.531c.038-.166.077-.166.62-.166h1.396c.039-.266.078-.598.116-.897 0-.698-.155-1.329-1.008-1.329-.659 0-1.318.332-1.512 1.03-.155.498-.272 1.13-.349 1.827l-.621.1c.272-.731.66-2.16.66-2.625 0-.266-.117-.332-.311-.332-.426 0-.543-.033-.504-.266l.078-.664.271.033c-.077.2.078.266.272.266zm5.351-1.528l.078-.664h.271c0 .166.117.232.427.232h.31l-.116.665c-.233 0-.272.133-.311.299-.038.232-.038.564-.038.764 0 .166 0 .232.271.232h1.357c.698 0 1.009.266 1.009.83 0 .632-.194 1.628-.543 1.927-.233.2-.659.332-1.202.664-.194.1-.233.166-.272.233l-.233-.034.156-.597c0-.067.038-.133.155-.2.698-.332.969-.431 1.279-.63a1.63 1.63 0 00.272-.898c0-.431-.31-.564-.737-.564h-1.474c-.349 0-.465-.067-.426-.3l.155-1.66c-.271-.033-.388-.066-.388-.299zm9.501 5.148a4.233 4.233 0 01-.155-1.195c0-.565.116-1.096.31-1.694-.349 0-.465-.034-.426-.266l.077-.664.272.033c0 .166.116.232.426.232h1.474c1.241 0 1.28.499 1.28 1.329 0 .399 0 1.362-.272 2.225h-2.986zm.31-1.428c0 .432.039.764.388.764h1.745c.349 0 .427-.232.427-.93 0-.963 0-1.262-.892-1.262h-1.396c-.116.166-.272.863-.272 1.428zm4.925-3.653l.078-.665.271.033c0 .167.117.233.427.233h.31l-.116.664c-.233 0-.272.133-.31.3-.039.232-.039.564-.039.763 0 .166 0 .233.271.233h1.358c.698 0 1.008.265 1.008.83 0 .631-.194 1.628-.543 1.927-.233.199-.659.365-1.202.664-.194.1-.233.166-.272.232l-.232-.033.155-.598c0-.066.039-.133.155-.2.698-.331.969-.43 1.28-.63.116-.166.271-.498.271-.897 0-.432-.31-.565-.737-.565h-1.473c-.349 0-.466-.066-.427-.298l.155-1.661c-.271-.067-.388-.133-.388-.332zm6.67 5.215c-.62-1.163-.775-1.828-.775-1.994 0-.166.155-.63.31-.996h-.31c-.349 0-.465-.033-.427-.266l.078-.664.271.033c0 .166.117.233.427.233h.543l-.117.664c-.232.133-.31.498-.31.864 0 .298.272.863.543 1.295l.776-2.126c-.272 0-.388-.066-.388-.299l.078-.63h.271c0 .165.116.232.427.232h.542l-.116.664c-.504.033-.543.133-1.28 2.259.582-.1 1.435-.266 1.707-.399.581-.299.969-1.262.969-1.528 0-.2-.077-.266-.31-.266-.349 0-.465-.033-.427-.265l.078-.665.271.034c0 .166.117.232.427.232h.078c.349 0 .465.033.465.266 0 .83-.892 2.69-1.474 2.89-.659.166-1.59.332-2.327.431zm6.322-3.654c.698 0 .853.265.853.896 0 .897.038 1.628.155 2.658l-.621.1.078-2.226c.039-.664-.194-.73-.621-.73-.426 0-.543-.034-.504-.267l.078-.664.271.033c-.038.133.117.2.311.2zm3.8 0c.504 0 .659.199.659.564 0 .1 0 .2-.039.332a6.3 6.3 0 00.815-.93h.892c.93 0 1.086.864 1.086 1.76 0 .665-.156 1.396-.233 1.794h-1.9c-.194 0-.233 0-.311.067l-.232-.033.155-.532c.039-.166.077-.166.62-.166h1.396c.039-.266.078-.598.117-.897 0-.697-.155-1.328-1.009-1.328-.659 0-1.318.332-1.512 1.03-.155.498-.271 1.129-.349 1.826l-.62.1c.271-.73.659-2.16.659-2.624 0-.266-.117-.332-.31-.332-.427 0-.543-.034-.505-.266l.078-.664.271.033c-.077.232.039.266.272.266zm9.966 2.524c.349 0 .892.332.892.897 0 .63-.659.963-1.28 1.13l-.116-.233c.465-.166.737-.366.737-.698 0-.299-.272-.498-.621-.565-.038 0-.116-.066-.116-.199.039-.2.272-.332.504-.332zm5.235-2.458c.97 0 1.28.299 1.28.963 0 .731-.116 1.395-.349 1.694-.155.2-.31.266-1.241.764-.194.1-.232.133-.31.2l-.233-.034.155-.564c0-.067.039-.133.156-.2.775-.398 1.047-.531 1.241-.697.155-.2.193-.465.193-.764 0-.565-.349-.698-1.085-.698h-1.435c-.349 0-.466-.033-.427-.265l.078-.665h.271c0 .166.117.233.427.233l1.279.033zm-1.396 1.628v3.122l-.62.1c.078-1.03.155-2.06.194-3.09l.349-.132h.077zm5.507-1.628c.621 0 .814.233.814.598s-.193.863-.349 1.495l-.62.1c.271-.532.465-.93.465-1.163 0-.233-.155-.332-.581-.332h-.117c-.349 0-.465-.034-.426-.266l.077-.664h.272c0 .232.194.232.465.232zm4.615 1.163l.194-.964c.194-.199.504-.332.814-.332.853 0 1.164.698 1.164 1.395 0 .698-.35 1.694-.854 1.927-.504.232-1.318.398-1.939.498-.62-1.163-.775-1.827-.775-1.993 0-.166.232-.631.426-.996h-.31c-.349 0-.465-.034-.426-.266l.077-.664.272.033c0 .166.116.232.426.232h.621l-.117.665c-.349.133-.465.598-.465.896 0 .3.271.897.582 1.395.426-.066 1.396-.265 1.628-.431.272-.233.427-.665.427-1.03 0-.698-.465-.963-.853-.963-.427 0-.504.199-.659.63l-.233-.032zm4.886-1.13c.698 0 .853.266.853.897 0 .897.039 1.628.155 2.657l-.62.1.077-2.226c.039-.664-.193-.73-.62-.73s-.543-.033-.504-.266l.077-.664h.272c-.039.166.077.232.31.232zm3.723-.199c0 .166.116.233.426.233h1.009c.93 0 1.163.332 1.163 1.03v1.228c0 .631.078.664.504.664l-.116.632h-3.025c-.194 0-.233 0-.31.066l-.233-.033.155-.532c.039-.166.078-.166.621-.166h2.094c-.116-.565-.116-1.096-.155-1.594 0-.498-.233-.631-.815-.631h-1.202c-.349 0-.465-.033-.426-.266l.077-.664.233.033zm9.423.233c.621 0 .815.232.815.597 0 .366-.194.864-.349 1.495l-.621.1c.272-.532.466-.93.466-1.163 0-.232-.156-.332-.582-.332h-.116c-.349 0-.466-.033-.427-.266l.078-.664h.271c0 .233.194.233.465.233zm4.576.033c.97 0 1.319.299 1.319 1.096 0 .398.039 1.461.155 2.458l-.621.1.078-1.994c.039-.83-.427-.963-1.086-.963h-1.163c-.349 0-.466-.033-.427-.266l.078-.664h.271c0 .166.117.233.427.233h.969zm4.227 0c.698 0 .853.265.853.897 0 .896.039 1.627.156 2.657l-.621.1.078-2.226c.038-.664-.194-.73-.621-.73-.426 0-.543-.034-.504-.267l.078-.664.271.033c0 .133.116.2.31.2zm4.382.033c.698 0 .853.266.853.83 0 .698 0 1.728.388 2.724l-.581.1a3.693 3.693 0 01-.156-1.096 9.7 9.7 0 00-.62 1.03h-.62c-.194 0-.233 0-.311.066l-.232-.034.155-.531c.039-.133.077-.166.504-.166h.426c.117-.067.466-.465.66-.897v-.565c0-.664-.194-.73-.698-.73-.427 0-.543-.034-.543-.266l.077-.664.272.033c.039.1.155.166.426.166zm3.878 0c.504 0 .66.2.66.565 0 .1-.039.199-.039.332.31-.3.581-.598.814-.93h.892c.931 0 1.086.863 1.086 1.76 0 .664-.155 1.395-.233 1.794h-1.9c-.194 0-.233 0-.31.066l-.233-.033.155-.532c.039-.166.078-.166.621-.166h1.396c.039-.265.077-.598.116-.896 0-.698-.155-1.329-1.008-1.329-.659 0-1.319.332-1.513 1.03-.155.498-.271 1.129-.349 1.827l-.62.1c.271-.732.659-2.16.659-2.625 0-.266-.116-.332-.31-.332-.427 0-.543-.033-.504-.266l.077-.664h.272c-.078.233.039.299.271.299z" fill="#5A4638"/></svg>