<svg xmlns="http://www.w3.org/2000/svg" xmlns:xlink="http://www.w3.org/1999/xlink" width="715.069" height="53.376" viewBox="0 0 715.069 53.376">
  <defs>
    <clipPath id="clip-path">
      <path id="Path_2041" data-name="Path 2041" d="M0,0H715.069V-53.376H0Z" fill="none"/>
    </clipPath>
  </defs>
  <g id="Group_5488" data-name="Group 5488" transform="translate(0 53.376)" clip-path="url(#clip-path)">
    <path id="Path_2040" data-name="Path 2040" d="M6.112-47.022H.363V-19.85H6.112Zm0,27.172M6.294-14.4H0v6.294H6.294Zm0,6.294M25.962-41.273a2.662,2.662,0,0,0-2.723-2.663H15.311v4.721h4.9V0h5.749ZM66.689-40A3.082,3.082,0,0,0,63.6-43.936H55.614v4.721h5.629L57.612-21.726,38.125-44.843l-3.994,3.57,7.08,8.17-4.539,1.755L33.768-8.17h5.567l2.905-23.6L62.029-8.049,65.9-11.8l-7.383-8.835h4.176ZM93.074-14.161,72.861-12.225V-7.2l23.6-2.3a2.77,2.77,0,0,0,2.3-2.663V-41.273A2.687,2.687,0,0,0,96.1-43.936H73.346v4.721H93.074Zm54.95-27.112a2.74,2.74,0,0,0-2.723-2.663H122.244v4.721h20.091V-8.109h5.689Zm37.46,31.167v-4.963l-4.72.484V-41.273a2.687,2.687,0,0,0-2.663-2.663h-22.21v4.721h19.184V-14.04l-19.426,1.815V-7.2Zm22.694-4.055-20.213,1.936V-7.2l23.6-2.3a2.771,2.771,0,0,0,2.3-2.663V-41.273a2.687,2.687,0,0,0-2.663-2.663H188.449v4.721h19.729Zm40-2.542h-6.052L238.376,0h2.965Zm30.8-24.57a2.74,2.74,0,0,0-2.724-2.663H253.2v4.721h20.092V-8.109h5.689Zm7.746-2.663v4.721h4.72V-8.109h5.81V-39.215h15.976V-8.109h5.689V-41.273a2.662,2.662,0,0,0-2.723-2.663Zm41.756.242-3.087,4.6,6.234,3.752-4.9,27.233h5.507l4.357-24.631a8.3,8.3,0,0,1,8.11-6.838,8.265,8.265,0,0,1,8.291,8.29v18.4H341.8v4.781H358.32V-31.167c0-8.109-6.052-13.434-13.616-13.434a14.078,14.078,0,0,0-10.167,4.538Zm65.661,2.421a2.662,2.662,0,0,0-2.723-2.663h-25.3v4.721h22.331V-8.109h5.689ZM371.815-29.714h-5.689V-8.109h5.689Zm0,21.605,51.8-35.827v-9.44h-5.749v14.161H439.11L430.577-8.109h5.749l8.533-31.348a5.2,5.2,0,0,0,.242-1.271,3.152,3.152,0,0,0-3.207-3.208Zm41.878,0v4.721h3.388l-6.233,19.244-4.72-21.423c-.363-1.573-1.211-2.542-2.9-2.542H449.64v4.721h3.449l6.657,31.106H468.7c8.109,0,13.072-1.453,16.158-11.015L491.579-40a2.957,2.957,0,0,0-2.966-3.934h-6.657v4.721h3.752L478.991-18.7c-1.15,3.51-3.389,5.81-8.109,5.81h-6.718l-1.452-6.9h5.567l7.081-21.544a2.022,2.022,0,0,0-2.058-2.6Zm79.46,35.827V-41.273a2.662,2.662,0,0,0-2.724-2.663H513.244v4.721h4.115V-8.109Zm-5.568-4.781h-16.4V-39.215h16.4Zm25.175-12.89V-41.394a2.468,2.468,0,0,0-2.481-2.542H552.4v4.721h6.354V-25.78Zm12.648-18.156v-9.44h-5.75v14.161H592.7L584.17-8.109h5.749l8.533-31.348a5.2,5.2,0,0,0,.242-1.271,3.153,3.153,0,0,0-3.207-3.208Zm41.877,0v4.721h3.389l-6.233,19.244-4.72-21.423c-.363-1.573-1.211-2.542-2.9-2.542h-5.386v4.721h3.449l6.657,31.106H622.3c8.109,0,13.072-1.453,16.158-11.015L645.171-40a2.957,2.957,0,0,0-2.965-3.934h-6.657v4.721H639.3L632.584-18.7c-1.15,3.51-3.389,5.81-8.11,5.81h-6.717l-1.452-6.9h5.567l7.081-21.544a2.022,2.022,0,0,0-2.058-2.6ZM661.875-8.109V-41.273a2.648,2.648,0,0,0-2.663-2.663h-7.323v4.721h4.237V-8.109ZM695.34-41.273a2.739,2.739,0,0,0-2.723-2.663H669.56v4.721h20.092V-8.109h5.688ZM715.069-25.78V-41.394a2.468,2.468,0,0,0-2.481-2.542h-9.683v4.721h6.354V-25.78Z" fill="#fff"/>
  </g>
</svg>
