<svg xmlns="http://www.w3.org/2000/svg" width="715.069" height="53.376"><defs><clipPath id="clip-path"><path id="Path_2041" data-name="Path 2041" d="M0 0h715.069v-53.376H0z" fill="none"/></clipPath></defs><g id="Group_5489" data-name="Group 5489" transform="translate(0 53.376)"><g id="Group_5488" data-name="Group 5488" clip-path="url(#clip-path)"><path id="Path_2040" data-name="Path 2040" d="M6.112-47.022H.363v27.172h5.749zM6.294-14.4H0v6.294h6.294zm19.668-26.873a2.662 2.662 0 00-2.723-2.663h-7.928v4.721h4.9V0h5.749zM66.689-40a3.082 3.082 0 00-3.089-3.936h-7.986v4.721h5.629l-3.631 17.489-19.487-23.117-3.994 3.57 7.08 8.17-4.539 1.755L33.768-8.17h5.567l2.905-23.6L62.029-8.049 65.9-11.8l-7.383-8.835h4.176zm26.385 25.839l-20.213 1.936V-7.2l23.6-2.3a2.77 2.77 0 002.3-2.663v-29.11a2.687 2.687 0 00-2.661-2.663H73.346v4.721h19.728zm54.95-27.112a2.74 2.74 0 00-2.723-2.663h-23.057v4.721h20.091v31.106h5.689zm37.46 31.167v-4.963l-4.72.484v-26.688a2.687 2.687 0 00-2.663-2.663h-22.21v4.721h19.184v25.175l-19.426 1.815V-7.2zm22.694-4.055l-20.213 1.936V-7.2l23.6-2.3a2.771 2.771 0 002.3-2.663v-29.11a2.687 2.687 0 00-2.663-2.663h-22.753v4.721h19.729zm40-2.542h-6.052L238.376 0h2.965zm30.8-24.57a2.74 2.74 0 00-2.724-2.663H253.2v4.721h20.092v31.106h5.689zm7.746-2.663v4.721h4.72v31.106h5.81v-31.106h15.976v31.106h5.689v-33.164a2.662 2.662 0 00-2.723-2.663zm41.756.242l-3.087 4.6 6.234 3.752-4.9 27.233h5.507l4.357-24.631a8.3 8.3 0 018.11-6.838 8.265 8.265 0 018.291 8.29v18.4H341.8v4.781h16.52v-23.06c0-8.109-6.052-13.434-13.616-13.434a14.078 14.078 0 00-10.167 4.538zm65.661 2.421a2.662 2.662 0 00-2.723-2.663h-25.3v4.721h22.331v31.106h5.689zm-22.326 11.559h-5.689v21.605h5.689zm0 21.605l51.8-35.827v-9.44h-5.749v14.161h21.244l-8.533 31.106h5.749l8.533-31.348a5.2 5.2 0 00.242-1.271 3.152 3.152 0 00-3.207-3.208zm41.878 0v4.721h3.388l-6.233 19.244-4.72-21.423c-.363-1.573-1.211-2.542-2.9-2.542h46.412v4.721h3.449l6.657 31.106h8.954c8.109 0 13.072-1.453 16.158-11.015L491.579-40a2.957 2.957 0 00-2.966-3.934h-6.657v4.721h3.752L478.991-18.7c-1.15 3.51-3.389 5.81-8.109 5.81h-6.718l-1.452-6.9h5.567l7.081-21.544a2.022 2.022 0 00-2.058-2.6zm79.46 35.827v-68.991a2.662 2.662 0 00-2.724-2.663h22.815v4.721h4.115v31.106zm-5.568-4.781h-16.4v-62.152h16.4zm25.175-12.89v-51.441a2.468 2.468 0 00-2.481-2.542H552.4v4.721h6.354v13.435zm12.648-18.156v-9.44h-5.75v14.161H592.7l-8.53-4.721h5.749l8.533-31.348a5.2 5.2 0 00.242-1.271 3.153 3.153 0 00-3.207-3.208zm41.877 0v4.721h3.389l-6.233 19.244-4.72-21.423c-.363-1.573-1.211-2.542-2.9-2.542h-5.386v4.721h3.449l6.657 31.106H622.3c8.109 0 13.072-1.453 16.158-11.015L645.171-40a2.957 2.957 0 00-2.965-3.934h-6.657v4.721h3.751L632.584-18.7c-1.15 3.51-3.389 5.81-8.11 5.81h-6.717l-1.452-6.9h5.567l7.081-21.544a2.022 2.022 0 00-2.058-2.6zm94.59 0v-33.164a2.648 2.648 0 00-2.663-2.663h-7.323v4.721h4.237v31.106zm33.465-33.164a2.739 2.739 0 00-2.723-2.663H669.56v4.721h20.092v31.106h5.688zm19.729 15.493v-15.614a2.468 2.468 0 00-2.481-2.542h-9.683v4.721h6.354v13.435z" fill="#fff"/></g></g></svg>